<?xml version="1.0" standalone="no"?>
<!DOCTYPE svg PUBLIC "-//W3C//DTD SVG 20010904//EN"
 "http://www.w3.org/TR/2001/REC-SVG-20010904/DTD/svg10.dtd">
<svg version="1.0" xmlns="http://www.w3.org/2000/svg"
 width="3672.000000pt" height="3672.000000pt" viewBox="0 0 3672.000000 3672.000000"
 preserveAspectRatio="xMidYMid meet">
<metadata>
Created by potrace 1.14, written by Peter Selinger 2001-2017
</metadata>
<g transform="translate(0.000000,3672.000000) scale(0.100000,-0.100000)"
fill="#000000" stroke="none">
<path d="M0 36280 c0 -433 0 -440 20 -440 17 0 20 7 20 40 0 27 7 47 20 60 11
11 20 29 20 40 0 17 7 20 40 20 22 0 40 5 40 10 0 6 18 10 40 10 38 0 40 2 40
30 0 28 3 30 35 30 22 0 38 6 41 15 4 10 20 15 45 15 35 0 39 3 39 25 0 23 4
25 40 25 22 0 40 5 40 10 0 6 18 10 40 10 22 0 40 -4 40 -10 0 -5 18 -10 40
-10 l40 0 0 40 0 40 120 0 120 0 0 -30 0 -30 80 0 c47 0 80 -4 80 -10 0 -6 33
-10 80 -10 l80 0 0 -40 0 -40 80 0 80 0 0 -40 0 -40 200 0 200 0 0 -40 0 -40
40 0 c29 0 40 4 40 15 0 11 11 15 40 15 29 0 40 -4 40 -15 0 -11 11 -15 40
-15 38 0 40 -2 40 -30 0 -28 2 -30 40 -30 33 0 40 -3 40 -19 0 -28 57 -81 86
-81 21 0 24 -4 24 -40 0 -36 3 -40 25 -40 23 0 25 -4 25 -40 0 -33 3 -40 20
-40 17 0 20 -7 20 -41 0 -36 3 -40 23 -39 43 4 47 1 47 -40 0 -36 3 -40 25
-40 23 0 25 -4 25 -40 l0 -40 40 0 40 0 0 -40 c0 -27 4 -40 14 -40 14 0 26
-79 26 -181 0 -52 2 -59 20 -59 18 0 20 -7 20 -80 0 -73 2 -80 20 -80 17 0 20
-7 20 -40 0 -28 4 -40 14 -40 10 0 16 -14 19 -42 l4 -43 1 43 c1 30 6 42 17
42 11 0 15 -11 15 -40 0 -36 3 -40 25 -40 25 0 25 -1 25 -80 l0 -80 41 0 41 0
-7 -80 -7 -80 41 0 41 0 0 -40 0 -40 45 0 45 0 0 -40 0 -40 40 0 40 0 0 40 0
40 -40 0 -40 0 0 40 0 40 40 0 40 0 0 40 0 40 -40 0 -40 0 0 160 0 160 40 0
40 0 0 40 0 40 80 0 80 0 0 40 0 40 120 0 120 0 0 40 0 40 40 0 40 0 0 40 0
40 40 0 40 0 0 40 0 40 120 0 120 0 0 -40 0 -40 120 0 120 0 0 -40 0 -40 80 0
80 0 0 40 0 40 360 0 360 0 0 -40 0 -40 40 0 40 0 0 40 0 40 40 0 40 0 0 -40
0 -40 120 0 120 0 0 -40 0 -40 120 0 120 0 0 -40 0 -40 40 0 40 0 0 -40 0 -40
200 0 200 0 0 -40 0 -40 -40 0 -40 0 0 -40 0 -40 80 0 80 0 0 -40 0 -40 -80 0
-80 0 0 -80 0 -80 120 0 120 0 0 -40 0 -40 -80 0 -80 0 0 -360 c0 -233 4 -360
10 -360 6 0 10 -18 10 -40 0 -38 2 -40 30 -40 l30 0 0 -120 c0 -73 4 -120 10
-120 6 0 10 -18 10 -40 0 -22 -4 -40 -10 -40 -6 0 -10 -33 -10 -80 l0 -80 -40
0 -40 0 0 -80 0 -80 -40 0 -40 0 0 -40 0 -40 -40 0 -40 0 0 -40 0 -40 -80 0
-80 0 0 -40 0 -40 -80 0 c-73 0 -80 2 -80 20 0 17 -7 20 -40 20 -33 0 -40 -3
-40 -20 0 -17 -7 -20 -40 -20 l-40 0 0 -40 0 -40 -120 0 -120 0 0 40 0 40 -80
0 -80 0 0 40 0 40 -40 0 c-33 0 -40 3 -40 20 0 17 -7 20 -40 20 -33 0 -40 3
-40 20 0 17 -7 20 -40 20 l-40 0 0 40 0 40 -40 0 -40 0 0 40 0 40 -40 0 -40 0
0 40 0 40 -80 0 -80 0 0 40 0 40 -40 0 -40 0 0 40 0 40 -40 0 -40 0 0 40 0 40
-120 0 -120 0 0 80 0 80 -80 0 -80 0 0 80 0 80 -40 0 -40 0 0 40 0 40 -40 0
-40 0 0 40 0 40 -80 0 -80 0 0 40 0 40 -240 0 -240 0 0 40 0 40 -40 0 -40 0 0
-40 0 -40 -40 0 -40 0 0 -120 0 -120 -40 0 -40 0 0 -40 0 -40 -40 0 -40 0 0
-40 0 -40 -40 0 -40 0 0 -40 0 -40 -40 0 -40 0 0 -40 0 -40 -60 0 c-65 0 -100
-21 -100 -60 0 -18 -7 -20 -80 -20 l-80 0 0 -40 c0 -36 -3 -40 -24 -40 -13 0
-26 -7 -30 -15 -3 -8 -10 -15 -16 -15 -5 0 -10 7 -10 15 0 11 -11 15 -40 15
l-40 0 0 -40 0 -40 -145 0 -145 0 0 -40 c0 -36 -3 -40 -24 -40 -24 0 -86 -51
-86 -71 0 -5 -36 -9 -81 -9 l-81 0 2 -42 c3 -68 3 -68 -40 -68 -36 0 -40 -2
-40 -25 0 -22 -4 -25 -35 -25 -21 0 -38 -6 -41 -14 -4 -10 -31 -16 -85 -21
-68 -6 -79 -10 -79 -26 0 -15 -7 -19 -40 -19 l-40 0 0 -40 0 -40 -120 0 c-100
0 -120 -2 -120 -15 0 -11 -11 -15 -40 -15 -29 0 -40 4 -40 15 0 8 -7 15 -15
15 -11 0 -15 11 -15 40 0 36 -2 40 -25 40 -22 0 -25 4 -25 40 0 33 -3 40 -20
40 -17 0 -20 7 -20 40 0 33 -3 40 -20 40 -11 0 -20 -7 -20 -15 0 -11 -11 -15
-40 -15 -29 0 -40 4 -40 15 0 11 -11 15 -40 15 l-40 0 0 40 0 40 -40 0 c-30 0
-40 -4 -40 -16 0 -17 -22 -14 -28 4 -2 7 3 12 12 12 12 0 16 10 16 40 l0 40
-40 0 c-33 0 -40 3 -40 20 0 18 -7 20 -80 20 -73 0 -80 2 -80 20 0 18 -7 20
-80 20 l-80 0 0 80 0 80 -40 0 -40 0 0 -3242 0 -3243 360 3 360 4 0 -81 0 -81
40 0 40 0 0 -200 0 -200 -40 0 -40 0 0 -160 0 -160 -40 0 -40 0 0 -80 0 -80
40 0 40 0 0 -120 0 -120 40 0 40 0 0 -40 0 -40 40 0 40 0 0 -40 0 -40 40 0 40
0 0 -40 0 -40 40 0 40 0 0 -40 0 -40 40 0 40 0 0 -40 0 -40 40 0 40 0 0 -80 0
-80 40 0 40 0 0 -80 0 -80 40 0 40 0 0 -40 0 -40 40 0 40 0 0 -80 0 -80 40 0
40 0 0 -40 0 -40 40 0 40 0 0 -240 0 -240 40 0 40 0 0 -120 0 -120 -40 0 -40
0 0 -120 0 -120 40 0 40 0 0 -40 0 -40 120 0 120 0 0 -40 0 -40 80 0 80 0 0
-40 0 -40 -40 0 -40 0 0 -40 0 -40 120 0 120 0 0 -40 0 -40 40 0 40 0 0 -80 0
-80 80 0 80 0 0 -40 0 -40 40 0 40 0 0 -40 0 -40 40 0 40 0 0 -80 0 -80 40 0
40 0 0 -40 0 -40 40 0 40 0 0 -40 0 -40 40 0 40 0 0 -80 0 -80 160 0 160 0 0
-40 0 -40 40 0 40 0 0 40 0 40 200 0 200 0 0 -40 0 -40 240 0 240 0 0 -40 0
-40 80 0 80 0 0 -40 0 -40 -40 0 -40 0 0 -40 0 -40 40 0 40 0 0 -120 0 -120
40 0 40 0 0 -280 0 -280 -40 0 -40 0 0 -40 0 -40 -160 0 -160 0 0 -40 0 -40
-80 0 -80 0 0 -40 0 -40 -120 0 -120 0 0 40 0 40 -40 0 -40 0 0 -40 0 -40 -80
0 -80 0 0 -40 0 -40 -240 0 -240 0 0 40 0 40 40 0 40 0 0 80 0 80 -40 0 -40 0
0 -40 0 -40 -80 0 -80 0 0 80 0 80 -80 0 -80 0 0 40 0 40 -280 0 -280 0 0 -80
0 -80 -80 0 -80 0 0 -40 0 -40 -40 0 -40 0 0 -40 0 -40 -40 0 -40 0 0 -40 0
-40 -440 0 -440 0 0 -40 0 -40 -80 0 -80 0 0 40 0 40 -40 0 -40 0 0 -40 0 -40
-160 0 -160 0 0 -40 0 -40 -80 0 -80 0 0 -40 0 -40 -40 0 -40 0 0 -400 0 -400
40 0 40 0 0 -80 0 -80 40 0 40 0 0 -40 0 -40 360 0 360 0 0 -40 0 -40 40 0 40
0 0 -40 0 -40 80 0 80 0 0 -40 0 -40 40 0 40 0 0 -40 0 -40 40 0 40 0 0 -40 0
-40 40 0 40 0 0 -40 0 -40 40 0 40 0 0 -40 c0 -22 -4 -40 -10 -40 -5 0 -10
-18 -10 -40 l0 -40 50 0 50 0 0 -80 0 -80 40 0 40 0 0 -200 0 -200 40 0 40 0
0 -80 0 -80 120 0 120 0 0 -80 0 -80 80 0 80 0 0 -40 0 -40 40 0 40 0 0 -40 0
-40 40 0 40 0 0 -40 0 -40 40 0 40 0 0 -40 0 -40 40 0 40 0 0 -40 0 -40 160 0
160 0 0 40 0 40 120 0 120 0 0 40 0 40 80 0 80 0 0 40 0 40 80 0 80 0 0 40 0
40 160 0 160 0 0 80 0 80 120 0 120 0 0 40 0 40 120 0 120 0 0 40 0 40 80 0
80 0 0 40 0 40 120 0 120 0 0 40 0 40 160 0 160 0 0 40 0 40 160 0 160 0 0
-40 0 -40 40 0 40 0 0 -40 0 -40 40 0 40 0 0 -80 0 -80 40 0 40 0 0 -40 0 -40
80 0 80 0 0 -40 0 -40 40 0 40 0 0 -120 0 -120 40 0 40 0 0 -40 0 -40 80 0 80
0 0 -40 0 -40 40 0 40 0 0 -40 0 -40 80 0 80 0 0 -40 0 -40 120 0 120 0 0 -40
0 -40 120 0 120 0 0 -40 0 -40 80 0 80 0 0 -40 0 -40 120 0 120 0 0 -80 0 -80
80 0 80 0 0 -40 0 -40 120 0 120 0 0 -40 0 -40 80 0 80 0 0 -40 0 -40 40 0 40
0 0 40 0 40 480 0 480 0 0 -40 0 -40 40 0 40 0 0 -40 0 -40 240 0 240 0 0 -40
0 -40 40 0 40 0 0 -40 0 -40 40 0 40 0 0 -40 0 -40 80 0 80 0 0 -40 0 -40 120
0 120 0 0 40 0 40 60 0 60 0 0 40 c0 36 3 40 25 40 22 0 25 4 25 36 0 29 8 44
34 70 19 19 36 44 38 56 3 21 11 24 81 32 l77 9 0 33 0 32 80 7 c69 6 80 10
80 26 0 15 7 19 40 19 29 0 40 4 40 15 0 13 20 15 120 15 l120 0 0 25 c0 21 5
25 30 25 28 0 30 2 30 40 0 22 5 40 10 40 6 0 10 18 10 40 0 36 3 40 25 40 23
0 25 4 25 40 0 22 -4 40 -10 40 -6 0 -10 33 -10 80 0 79 0 80 -25 80 -25 0
-25 1 -25 80 0 47 -4 80 -10 80 -5 0 -10 18 -10 40 0 33 -3 40 -20 40 -17 0
-20 7 -20 40 0 22 -4 40 -10 40 -5 0 -10 18 -10 40 0 22 5 40 10 40 6 0 10 18
10 40 0 37 -2 40 -28 40 -26 0 -27 2 -24 40 l4 40 -56 0 -56 0 0 41 0 42 40
-7 40 -6 0 45 0 45 -40 0 -40 0 0 40 c0 33 -3 40 -20 40 -17 0 -20 7 -20 40 0
22 -4 40 -10 40 -5 0 -10 18 -10 40 0 22 -4 40 -10 40 -5 0 -10 18 -10 40 0
36 -2 40 -25 40 -22 0 -25 4 -25 40 0 29 -4 40 -15 40 -11 0 -15 -11 -15 -40
l0 -40 -80 0 -80 0 0 40 0 40 40 0 40 0 0 40 0 40 -40 0 -40 0 0 40 c0 33 3
40 20 40 18 0 20 7 20 80 l0 80 -60 0 -60 0 0 40 c0 33 3 40 20 40 17 0 20 7
20 40 0 33 -3 40 -20 40 -17 0 -20 7 -20 40 0 28 -4 40 -14 40 -10 0 -16 22
-21 80 -5 61 -11 80 -22 80 -12 0 -14 8 -9 40 3 22 9 58 12 80 5 33 3 40 -10
40 -12 0 -16 -10 -16 -40 0 -22 -4 -40 -10 -40 -6 0 -10 47 -10 120 0 66 -4
120 -8 120 -4 0 -6 126 -4 280 l4 280 -26 0 c-24 0 -26 4 -26 40 l0 40 160 0
160 0 0 40 c0 33 3 40 20 40 18 0 20 -7 20 -80 0 -73 -2 -80 -20 -80 -17 0
-20 -7 -20 -40 l0 -40 85 0 85 0 0 -40 c0 -29 4 -40 15 -40 12 0 15 -16 15
-80 0 -73 -2 -80 -20 -80 -17 0 -20 -7 -20 -40 0 -38 2 -40 30 -40 28 0 30 -2
30 -40 0 -22 5 -40 10 -40 6 0 10 -18 10 -40 l0 -40 40 0 c37 0 40 2 40 27 0
49 32 1 38 -56 4 -48 6 -51 33 -51 16 0 29 -5 29 -11 0 -5 -4 -7 -10 -4 -6 4
-10 -8 -10 -29 0 -42 17 -48 22 -8 l4 27 14 -27 c7 -16 19 -28 27 -28 9 0 13
-18 13 -68 0 -56 3 -70 20 -82 25 -18 29 -90 5 -90 -11 0 -15 -11 -15 -40 0
-33 4 -40 19 -40 16 0 20 -11 26 -80 4 -44 11 -80 16 -80 5 0 9 8 9 17 0 13 3
14 11 6 14 -14 12 -176 -2 -181 -5 -2 -9 -21 -9 -43 l0 -39 50 0 50 0 0 -40
c0 -22 -4 -40 -10 -40 -18 0 -11 -29 10 -40 11 -6 20 -17 20 -25 0 -8 9 -15
19 -15 15 0 20 -9 23 -40 3 -36 1 -40 -19 -40 -20 0 -23 -5 -23 -40 0 -32 -4
-40 -18 -40 -11 0 -24 12 -31 28 -8 15 -17 35 -22 44 -5 10 -9 34 -9 53 0 19
-4 35 -10 35 -5 0 -10 18 -10 40 0 38 -2 40 -30 40 l-30 0 0 -80 c0 -71 2 -80
19 -80 14 0 20 -10 25 -46 3 -26 6 -62 6 -80 0 -32 2 -34 35 -34 30 0 35 -3
35 -23 0 -13 9 -32 20 -42 18 -16 20 -31 20 -137 0 -111 1 -118 20 -118 19 0
20 -7 20 -143 0 -98 4 -147 12 -155 7 -7 11 -32 9 -57 -2 -44 -2 -45 28 -45
28 0 31 -3 33 -32 0 -18 0 -42 -1 -52 -1 -11 6 -27 15 -37 9 -11 19 -41 22
-69 4 -46 3 -50 -17 -50 -18 0 -21 -6 -21 -40 l0 -40 80 0 c63 0 80 -3 80 -15
0 -23 49 -65 75 -65 22 0 25 -4 25 -40 0 -22 -4 -40 -10 -40 -5 0 -10 -8 -10
-19 0 -10 -9 -21 -20 -24 -17 -4 -20 -14 -20 -61 0 -49 -2 -56 -20 -56 -19 0
-20 -7 -20 -120 l0 -120 -120 0 -120 0 0 -40 c0 -29 -4 -40 -15 -40 -8 0 -15
-5 -15 -10 0 -6 7 -13 15 -16 8 -4 15 -16 15 -29 0 -18 7 -24 33 -28 49 -8
121 -29 127 -38 3 -5 89 -4 190 1 198 9 209 7 211 -39 0 -14 3 -20 6 -13 7 18
60 15 67 -4 3 -9 6 -29 6 -45 0 -22 7 -32 25 -41 32 -14 31 -22 -2 -37 l-28
-13 25 -13 c14 -8 33 -12 43 -9 9 3 17 1 17 -5 0 -6 -5 -11 -12 -11 -6 0 -21
-9 -32 -19 -17 -16 -20 -29 -18 -65 5 -57 22 -61 22 -6 l0 40 40 0 c39 0 40
-1 40 -35 0 -22 8 -43 20 -55 16 -16 18 -25 10 -40 -7 -14 -8 -26 0 -39 5 -11
10 -49 10 -86 0 -63 2 -67 40 -109 31 -34 40 -51 40 -80 0 -51 -20 -45 -22 7
l-1 42 -4 -40 c-3 -22 -10 -43 -16 -47 -7 -5 -1 -8 16 -8 29 0 38 -25 15 -48
-17 -17 -8 -21 45 -23 l47 -2 0 -78 c0 -73 1 -78 23 -81 13 -2 23 -11 24 -23
1 -11 5 -64 8 -117 6 -79 10 -98 22 -98 13 0 14 -9 9 -52 -10 -74 -9 -100 1
-107 6 -3 13 -34 16 -67 5 -50 3 -65 -9 -75 -13 -11 -15 -27 -10 -94 7 -85 25
-165 38 -165 4 0 8 -18 8 -40 0 -29 4 -40 15 -40 9 0 15 -9 15 -25 0 -18 5
-25 19 -25 10 0 21 -7 25 -15 3 -8 12 -15 21 -15 11 0 15 11 15 43 l0 43 40
-4 c34 -4 40 -8 40 -27 0 -13 7 -25 15 -29 19 -7 19 -26 0 -26 -8 0 -15 -4
-15 -10 0 -5 -18 -10 -40 -10 -42 0 -54 -14 -21 -25 11 -3 22 -12 25 -20 3 -8
14 -15 24 -15 10 0 24 -11 30 -25 6 -14 16 -25 22 -25 5 0 10 -7 10 -15 0 -8
7 -15 15 -15 11 0 15 -11 15 -40 0 -29 4 -40 15 -40 8 0 15 -4 15 -10 0 -5 11
-12 25 -16 20 -5 25 -12 25 -39 0 -19 8 -39 20 -50 11 -10 20 -23 20 -30 0 -7
9 -20 20 -30 11 -10 20 -29 20 -42 0 -12 5 -23 11 -23 15 0 69 -56 69 -71 0
-7 8 -30 18 -50 13 -30 23 -39 42 -39 32 0 100 -67 100 -98 0 -19 -5 -22 -40
-22 l-40 0 0 -60 0 -60 -30 0 c-28 0 -30 -2 -30 -40 0 -22 5 -40 10 -40 6 0
10 -18 10 -40 0 -23 5 -40 11 -40 8 0 9 -24 4 -80 -6 -70 -5 -80 9 -80 9 0 16
-8 16 -20 0 -11 9 -29 20 -40 13 -13 20 -33 20 -60 0 -33 3 -40 20 -40 11 0
20 -6 20 -12 1 -30 52 -50 156 -61 l104 -11 0 -38 c0 -35 -2 -38 -27 -38 l-28
-1 24 -17 c53 -39 71 -64 71 -103 0 -22 5 -39 10 -39 6 0 10 -18 10 -40 0 -22
5 -40 10 -40 6 0 10 -18 10 -40 0 -29 4 -40 15 -40 11 0 15 -11 15 -40 0 -31
4 -40 17 -40 12 0 5 -12 -25 -43 -55 -56 -55 -77 -2 -77 33 0 40 3 40 20 0 11
5 20 10 20 6 0 10 -33 10 -80 0 -47 -4 -80 -10 -80 -5 0 -10 5 -10 10 0 6 -18
10 -39 10 -31 0 -44 6 -67 33 -34 38 -44 43 -54 27 -5 -9 -29 -10 -84 -5 -75
7 -76 8 -76 36 0 28 -1 29 -54 29 -30 0 -58 5 -61 10 -3 6 -15 10 -26 10 -14
0 -19 7 -19 30 0 28 -2 30 -40 30 -22 0 -40 5 -40 10 0 6 33 10 80 10 l80 0 0
40 0 40 -80 0 -80 0 0 40 0 40 -40 0 -40 0 0 40 0 40 -40 0 -40 0 0 40 0 40
-120 0 -120 0 0 40 0 40 -80 0 -80 0 0 40 0 40 -40 0 -40 0 0 40 0 40 -80 0
-80 0 0 40 0 40 -80 0 -80 0 0 40 0 40 -80 0 -80 0 0 -80 0 -80 -40 0 -40 0 0
-40 0 -40 -40 0 -40 0 0 -40 0 -40 -40 0 -40 0 0 -40 0 -40 -40 0 -40 0 0 -40
0 -40 -40 0 -40 0 0 -80 0 -80 -80 0 -80 0 0 -40 0 -40 -40 0 -40 0 0 -40 0
-40 -360 0 -360 0 0 40 0 40 -40 0 -40 0 0 -40 0 -40 -40 0 -40 0 0 40 0 40
-80 0 -80 0 0 40 0 40 -40 0 -40 0 0 40 0 40 -40 0 -40 0 0 40 0 40 -40 0 -40
0 0 40 0 40 -40 0 -40 0 0 40 0 40 -40 0 -40 0 0 -40 0 -40 -120 0 -120 0 0
-40 0 -40 -40 0 -40 0 0 -40 0 -40 -40 0 -40 0 0 -80 0 -80 -40 0 -40 0 0 -80
0 -80 -40 0 -40 0 0 -40 0 -40 -40 0 -40 0 0 -120 0 -120 -40 0 -40 0 0 -40 0
-40 -40 0 -40 0 0 -40 0 -40 -40 0 -40 0 0 -40 0 -40 -40 0 -40 0 0 -40 0 -40
-280 0 -280 0 0 40 0 40 -160 0 -160 0 0 -40 0 -40 -40 0 -40 0 0 -80 0 -80
-40 0 -40 0 0 -40 0 -40 -40 0 -40 0 0 -40 0 -40 40 0 40 0 0 -40 0 -40 -40 0
-40 0 0 -160 0 -160 -40 0 -40 0 0 -160 0 -160 -40 0 -40 0 0 -80 0 -80 40 0
40 0 0 -80 0 -80 40 0 40 0 0 -40 0 -40 240 0 240 0 0 40 0 40 40 0 40 0 0 40
0 40 40 0 40 0 0 40 0 40 80 0 80 0 0 80 0 80 40 0 40 0 0 80 0 80 160 0 160
0 0 40 0 40 200 0 200 0 0 -40 0 -40 160 0 160 0 0 -40 0 -40 160 0 160 0 0
-40 0 -40 120 0 120 0 0 40 0 40 160 0 160 0 0 -80 0 -80 80 0 80 0 0 -40 0
-40 -40 0 -40 0 0 -40 0 -40 80 0 80 0 0 -80 0 -80 120 0 120 0 0 -40 0 -40
40 0 40 0 0 -40 0 -40 40 0 40 0 0 -40 0 -40 200 0 200 0 0 -40 0 -40 40 0 40
0 0 40 0 40 320 0 320 0 0 40 0 40 120 0 120 0 0 40 0 40 40 0 40 0 0 40 0 40
43 1 c23 1 59 2 80 2 36 1 37 2 37 39 0 38 0 38 40 38 l40 0 0 80 0 80 -40 0
-40 0 0 240 0 240 -40 0 -40 0 0 240 0 240 40 0 40 0 0 80 0 80 40 0 40 0 0
80 0 80 40 0 40 0 0 120 0 120 40 0 40 0 0 120 0 120 119 0 c81 0 121 4 123
11 5 14 238 -9 238 -23 0 -4 18 -8 40 -8 l40 0 0 -70 c0 -40 -4 -70 -10 -70
-6 0 -10 -33 -10 -80 0 -47 4 -80 10 -80 6 0 10 33 10 80 l0 80 40 0 c22 0 40
5 40 10 0 6 16 10 34 10 29 0 43 -9 80 -48 39 -40 46 -53 46 -89 0 -36 3 -43
20 -43 17 0 20 -7 20 -40 0 -33 3 -40 20 -40 16 0 20 7 20 30 0 28 2 30 40 30
l40 0 0 -60 0 -60 40 0 40 0 0 -49 c0 -29 -5 -51 -12 -53 -21 -7 0 -38 27 -38
18 0 25 -5 25 -20 0 -13 7 -20 20 -20 11 0 20 -4 20 -10 0 -5 22 -10 49 -10
26 0 63 -5 81 -11 l33 -12 -24 -18 -24 -19 33 0 c31 0 32 -2 32 -40 0 -22 5
-40 11 -40 7 0 10 -22 7 -62 l-3 -63 54 3 c62 4 97 -10 105 -44 4 -13 15 -28
26 -34 20 -11 28 -40 11 -40 -15 0 -18 -90 -4 -102 7 -6 13 -21 13 -34 0 -13
6 -24 13 -24 8 0 20 -18 27 -40 7 -22 19 -40 27 -40 7 0 13 -11 13 -24 0 -13
6 -26 14 -29 7 -3 22 -28 32 -56 10 -28 22 -51 26 -51 4 0 8 -10 8 -23 0 -13
5 -28 12 -35 7 -7 11 -32 9 -57 -1 -25 2 -45 7 -45 5 0 15 -18 22 -40 7 -22
17 -40 22 -40 4 0 8 -18 8 -40 0 -22 5 -40 10 -40 6 0 10 -18 10 -40 0 -22 5
-40 10 -40 6 0 10 -18 10 -40 0 -22 5 -40 10 -40 6 0 10 -18 10 -40 0 -22 5
-40 10 -40 6 0 10 -18 10 -40 0 -22 5 -40 10 -40 6 0 10 -18 10 -40 0 -27 4
-40 14 -40 10 0 16 -22 21 -77 4 -43 11 -81 16 -84 5 -3 12 -59 14 -125 2 -65
2 -111 -1 -101 -7 21 -23 22 -30 2 -4 -8 -17 -15 -30 -15 -13 0 -24 -5 -24
-11 0 -15 -56 -69 -72 -69 -8 0 -29 -16 -48 -35 -22 -22 -36 -31 -41 -24 -4 7
-12 8 -18 5 -16 -10 -14 -26 4 -26 8 0 15 -4 15 -10 0 -5 -18 -10 -39 -10 -30
0 -46 -7 -69 -30 -17 -17 -37 -30 -44 -30 -17 0 -88 -71 -88 -88 0 -7 -15 -12
-39 -12 -30 0 -46 -7 -69 -30 -18 -18 -41 -30 -56 -30 -15 0 -30 -8 -35 -19
-6 -10 -24 -24 -41 -29 -16 -6 -30 -16 -30 -21 0 -6 -13 -11 -28 -11 -19 0
-40 -12 -67 -40 -39 -40 -39 -40 -117 -40 -59 0 -78 -3 -78 -13 0 -8 -19 -20
-43 -27 -23 -8 -49 -20 -58 -27 -8 -7 -27 -13 -41 -13 -15 0 -39 -6 -55 -14
-56 -29 -140 -66 -149 -66 -5 0 -31 -11 -59 -25 -27 -13 -56 -25 -62 -25 -7 0
-13 -7 -13 -15 0 -11 -11 -15 -35 -15 -21 0 -38 -6 -41 -14 -3 -7 -23 -19 -45
-26 -21 -7 -39 -19 -39 -25 0 -12 -22 -24 -125 -70 -33 -14 -71 -32 -85 -39
-14 -7 -44 -19 -67 -26 -24 -7 -43 -19 -43 -27 0 -9 -13 -13 -40 -13 -22 0
-40 -4 -40 -8 0 -5 -18 -15 -40 -22 -22 -7 -47 -21 -56 -32 -10 -10 -31 -18
-50 -18 -18 0 -36 -4 -39 -10 -3 -5 -24 -14 -45 -20 -22 -6 -44 -20 -50 -30
-7 -14 -21 -20 -45 -20 -18 0 -36 -4 -39 -9 -4 -5 -31 -17 -61 -26 -31 -10
-55 -24 -55 -31 0 -9 -12 -14 -35 -14 -21 0 -38 -6 -41 -14 -3 -7 -23 -19 -45
-26 -21 -7 -39 -19 -39 -27 0 -7 -6 -13 -14 -13 -21 0 -103 -49 -110 -65 -3
-8 -13 -15 -22 -15 -9 0 -39 -20 -65 -45 -27 -25 -61 -51 -76 -57 -15 -7 -36
-23 -46 -35 -10 -13 -28 -23 -39 -23 -11 0 -22 -8 -24 -17 -3 -10 -23 -26 -45
-35 -21 -9 -39 -23 -39 -31 0 -7 -18 -20 -40 -27 -22 -7 -47 -21 -56 -32 -10
-10 -24 -18 -33 -18 -9 0 -33 -18 -54 -40 -20 -22 -42 -40 -47 -40 -6 0 -10
-4 -10 -8 0 -4 -17 -14 -37 -21 -21 -7 -51 -26 -68 -41 -16 -15 -44 -35 -61
-44 -17 -8 -34 -22 -37 -31 -4 -8 -13 -15 -22 -15 -8 0 -15 -6 -15 -13 0 -8
-18 -20 -40 -27 -22 -7 -40 -19 -40 -27 0 -7 -7 -13 -15 -13 -8 0 -19 -9 -25
-19 -5 -11 -19 -23 -30 -26 -12 -4 -52 -38 -91 -76 -38 -38 -76 -69 -84 -69
-7 0 -22 -11 -33 -25 -11 -14 -25 -25 -31 -25 -6 0 -11 -4 -11 -8 0 -5 -18
-15 -40 -22 -27 -9 -40 -19 -40 -32 0 -12 -7 -18 -22 -18 -17 0 -28 -11 -41
-40 -12 -26 -25 -40 -37 -40 -11 0 -36 -18 -57 -39 -21 -21 -47 -41 -58 -43
-12 -2 -21 -13 -23 -26 -2 -13 -22 -36 -49 -55 -25 -17 -59 -46 -76 -64 -16
-18 -33 -30 -37 -28 -4 2 -44 -34 -89 -80 -47 -48 -97 -90 -117 -97 -20 -7
-34 -19 -34 -28 0 -9 -16 -25 -36 -36 -20 -10 -64 -47 -98 -80 -33 -34 -70
-64 -81 -66 -12 -2 -21 -13 -23 -25 -4 -24 -82 -93 -82 -72 0 7 -17 -4 -38
-24 -21 -20 -44 -37 -51 -37 -14 0 -71 -54 -71 -68 0 -5 -17 -17 -37 -28 -21
-10 -46 -29 -56 -42 -10 -12 -26 -22 -35 -22 -9 0 -33 -18 -52 -40 -19 -22
-40 -40 -46 -40 -5 0 -26 -16 -45 -36 -18 -19 -54 -45 -79 -57 -25 -12 -53
-32 -63 -44 -10 -13 -27 -23 -38 -23 -11 0 -39 -18 -63 -40 -24 -22 -53 -40
-65 -40 -13 0 -37 -16 -58 -40 -20 -22 -43 -40 -52 -40 -9 0 -32 -18 -51 -40
-19 -22 -41 -40 -47 -40 -7 0 -13 -4 -13 -8 0 -4 -17 -14 -37 -21 -21 -8 -55
-29 -77 -48 -25 -23 -41 -31 -45 -24 -5 7 -18 0 -36 -19 -16 -17 -50 -41 -75
-53 -25 -12 -53 -32 -63 -45 -10 -12 -27 -22 -38 -22 -11 0 -22 -6 -25 -14 -3
-7 -23 -19 -45 -26 -21 -7 -39 -19 -39 -27 0 -7 -9 -13 -19 -13 -11 0 -45 -26
-76 -57 -38 -39 -59 -53 -64 -45 -5 8 -17 1 -41 -23 -23 -24 -43 -35 -62 -35
-15 0 -28 -5 -28 -10 0 -6 -12 -15 -27 -21 -15 -5 -36 -19 -47 -29 -66 -63
-116 -100 -133 -100 -10 0 -23 -4 -28 -9 -6 -6 -39 -25 -75 -43 -36 -19 -75
-42 -85 -51 -50 -44 -93 -76 -121 -90 -17 -9 -34 -23 -37 -32 -4 -8 -13 -15
-22 -15 -8 0 -15 -4 -15 -8 0 -4 -17 -14 -37 -21 -21 -8 -55 -29 -77 -48 -25
-23 -41 -31 -45 -24 -5 7 -20 -2 -41 -24 -19 -19 -40 -35 -48 -35 -8 0 -24 -9
-36 -20 -38 -37 -91 -77 -122 -93 -17 -9 -34 -23 -37 -32 -4 -8 -18 -15 -32
-15 -25 0 -85 -47 -85 -67 0 -11 -48 -39 -82 -47 -15 -3 -32 -15 -38 -26 -6
-12 -21 -20 -36 -20 -24 0 -84 -48 -84 -67 0 -11 -48 -39 -82 -47 -15 -3 -32
-15 -38 -26 -7 -13 -21 -20 -41 -20 -17 0 -32 -6 -35 -15 -3 -8 -21 -23 -40
-34 -19 -11 -33 -26 -32 -33 2 -6 -14 -18 -35 -25 -21 -7 -51 -26 -67 -41 -15
-15 -46 -34 -69 -42 -28 -9 -41 -19 -41 -32 0 -11 -7 -18 -19 -18 -11 0 -45
-26 -76 -57 -38 -38 -59 -53 -64 -45 -4 8 -32 -14 -81 -63 -41 -41 -83 -75
-93 -75 -9 0 -20 -7 -23 -15 -3 -8 -21 -23 -40 -35 -20 -11 -32 -24 -29 -30 3
-5 -7 -16 -22 -22 -15 -7 -36 -23 -46 -35 -10 -13 -29 -23 -43 -23 -14 0 -24
-6 -24 -15 0 -8 -9 -19 -20 -25 -11 -6 -20 -17 -20 -25 0 -8 -7 -15 -16 -15
-9 0 -88 -71 -176 -158 -87 -86 -166 -159 -175 -161 -22 -4 -73 -56 -73 -72 0
-8 -89 -104 -197 -215 -109 -110 -211 -217 -228 -237 -16 -20 -36 -37 -42 -37
-7 0 -13 -5 -13 -11 0 -14 -55 -69 -69 -69 -6 0 -11 -5 -11 -11 0 -14 -55 -69
-69 -69 -6 0 -11 -7 -11 -15 0 -9 -7 -18 -15 -22 -9 -3 -24 -22 -34 -42 -11
-20 -40 -55 -65 -78 -26 -24 -46 -51 -46 -62 0 -12 -5 -21 -11 -21 -14 0 -69
-55 -69 -69 0 -6 -5 -11 -11 -11 -14 0 -69 -55 -69 -69 0 -6 -5 -11 -11 -11
-15 0 -69 -56 -69 -72 0 -7 -54 -67 -120 -133 -66 -66 -120 -123 -120 -128 0
-12 -57 -67 -69 -67 -6 0 -11 -7 -11 -15 0 -8 -9 -19 -19 -24 -10 -6 -24 -24
-29 -41 -6 -16 -15 -30 -19 -30 -5 0 -22 -20 -37 -44 -15 -25 -34 -47 -42 -50
-8 -3 -14 -19 -14 -35 0 -20 -7 -34 -19 -40 -10 -6 -24 -24 -29 -41 -6 -16
-15 -30 -19 -30 -5 0 -22 -20 -37 -44 -15 -25 -34 -47 -41 -50 -7 -2 -13 -20
-13 -41 0 -20 -7 -44 -16 -54 -14 -15 -19 -60 -27 -257 -8 -167 -15 -248 -25
-268 -8 -16 -14 -35 -14 -43 0 -7 -4 -13 -9 -13 -13 0 -25 -136 -26 -280 0
-69 -5 -178 -9 -242 l-9 -118 16946 0 16947 0 0 18360 0 18360 -18360 0
-18360 0 0 -440z m9280 -2160 l0 -40 50 0 c48 0 50 -1 38 -20 -9 -14 -24 -20
-50 -20 l-38 0 0 -60 c0 -47 3 -60 15 -60 12 0 11 -4 -5 -20 -12 -12 -33 -20
-55 -20 -19 0 -35 -4 -35 -10 0 -5 -18 -10 -40 -10 -22 0 -40 -4 -40 -10 0
-14 156 -13 181 1 30 15 167 18 187 3 29 -21 4 -29 -111 -35 -258 -15 -337
-22 -337 -30 0 -5 -18 -9 -40 -9 -22 0 -40 -3 -40 -8 0 -8 -28 -21 -107 -48
-29 -10 -53 -24 -53 -31 0 -9 -14 -13 -40 -13 -22 0 -40 -4 -40 -10 0 -5 -18
-10 -40 -10 -23 0 -40 -5 -40 -11 0 -8 17 -10 50 -7 28 3 50 1 50 -4 0 -13
-26 -38 -40 -38 -12 0 -18 -5 -96 -77 -31 -29 -62 -53 -68 -53 -7 0 -21 -7
-32 -15 -10 -8 -26 -15 -35 -15 -9 0 -21 -16 -29 -40 -7 -22 -20 -40 -28 -40
-11 0 -14 -11 -10 -51 3 -28 2 -45 -2 -38 -6 8 -14 1 -26 -22 -14 -27 -18 -61
-20 -161 -1 -71 2 -128 7 -128 5 0 9 18 9 40 0 29 4 40 15 40 11 0 15 11 15
40 0 28 4 40 14 40 8 0 17 13 21 29 3 16 15 39 26 52 10 12 19 30 19 41 0 10
6 18 13 18 7 0 19 10 27 21 8 12 21 27 28 35 6 7 12 23 12 36 0 15 8 27 23 33
12 6 26 20 32 33 6 13 18 22 32 22 13 0 23 4 23 8 0 5 11 15 25 22 14 7 25 22
25 32 0 12 7 18 24 18 34 0 56 10 56 25 0 7 13 15 29 18 16 3 36 13 44 22 9 8
24 15 34 15 10 1 29 7 43 15 14 8 37 14 52 15 15 0 29 4 32 8 3 5 58 12 123
15 66 4 119 11 121 17 5 14 162 13 162 -1 0 -7 8 -18 18 -25 16 -13 16 -15 -3
-26 -18 -11 -18 -12 -1 -18 17 -6 17 -7 2 -22 -9 -9 -16 -21 -16 -26 0 -5 -18
-15 -40 -22 -22 -7 -40 -19 -40 -27 0 -9 -13 -13 -40 -13 -39 0 -40 -1 -40
-35 0 -34 -1 -35 -40 -35 -28 0 -40 -4 -40 -14 0 -8 -11 -17 -25 -20 -14 -4
-25 -11 -25 -16 0 -6 -7 -10 -15 -10 -8 0 -15 -6 -15 -14 0 -8 -8 -17 -18 -20
-9 -3 -26 -22 -36 -41 -10 -19 -27 -37 -37 -40 -11 -4 -19 -11 -19 -17 0 -5
-25 -34 -55 -63 -30 -29 -55 -57 -55 -62 0 -5 -11 -20 -25 -33 -13 -12 -22
-26 -20 -31 3 -4 -8 -20 -25 -36 -16 -15 -30 -34 -30 -40 0 -7 -8 -21 -17 -31
-10 -10 -27 -31 -38 -46 -11 -16 -27 -36 -35 -45 -42 -45 -70 -91 -70 -114 0
-18 -5 -27 -16 -27 -8 0 -20 -13 -25 -30 -6 -16 -17 -30 -25 -30 -8 0 -14 -9
-14 -20 0 -22 -44 -91 -66 -103 -9 -5 -14 -26 -14 -62 0 -48 -2 -55 -20 -55
-17 0 -20 -7 -20 -40 0 -22 -4 -40 -10 -40 -5 0 -10 -18 -10 -40 0 -38 -2 -40
-30 -40 -28 0 -30 -2 -30 -40 0 -33 -3 -40 -20 -40 -17 0 -20 -7 -20 -40 l0
-40 -40 0 c-33 0 -40 3 -40 20 0 17 -7 20 -40 20 -38 0 -40 -2 -40 -30 0 -28
-2 -30 -40 -30 -38 0 -40 -2 -40 -30 l0 -30 -80 0 -80 0 0 -40 0 -40 -80 0
-80 0 0 -40 0 -40 -40 0 -40 0 0 -80 0 -80 -100 0 -100 0 0 40 c0 33 -3 40
-20 40 -18 0 -20 -7 -20 -80 l0 -80 -40 0 -40 0 0 -40 0 -40 -400 0 -400 0 0
40 0 40 -40 0 -40 0 0 -80 0 -80 -40 0 -40 0 0 -200 0 -200 -40 0 -40 0 0 -40
0 -40 40 0 40 0 0 -40 0 -40 -40 0 -40 0 0 -280 0 -280 -40 0 -40 0 0 -80 0
-80 40 0 40 0 0 -120 0 -120 -40 0 -40 0 0 -40 0 -40 -120 0 -120 0 0 -40 0
-40 -160 0 -160 0 0 -80 0 -80 -40 0 -40 0 0 -120 0 -120 -40 0 -40 0 0 -80 0
-80 -40 0 -40 0 0 -40 0 -40 -80 0 -80 0 0 -40 0 -40 -40 0 -40 0 0 -40 0 -40
-40 0 -40 0 0 -80 0 -80 -80 0 -80 0 0 -40 0 -40 -80 0 -80 0 0 40 0 40 -120
0 -120 0 0 40 0 40 -80 0 -80 0 0 40 0 40 -200 0 -200 0 0 40 0 40 -120 0
-120 0 0 40 0 40 -40 0 -40 0 0 200 0 200 40 0 40 0 0 40 0 40 40 0 40 0 0
120 0 120 40 0 40 0 0 120 0 120 40 0 40 0 0 40 0 40 40 0 40 0 0 360 0 360
40 0 40 0 0 80 0 80 -40 0 -40 0 0 80 0 80 40 0 40 0 0 40 0 40 160 0 160 0 0
40 0 40 160 0 160 0 0 40 0 40 80 0 80 0 0 40 0 40 80 0 80 0 0 40 0 40 120 0
120 0 0 40 0 40 40 0 40 0 0 40 0 40 80 0 80 0 0 80 0 80 40 0 40 0 0 40 0 40
200 0 200 0 0 40 0 40 40 0 40 0 0 80 0 80 40 0 40 0 0 80 0 80 80 0 80 0 0
80 0 80 40 0 40 0 0 80 0 80 40 0 40 0 0 40 0 40 40 0 40 0 0 40 0 40 40 0 40
0 0 80 0 80 40 0 40 0 0 40 0 40 80 0 80 0 0 40 0 40 80 0 80 0 0 80 0 80 80
0 80 0 0 40 0 40 120 0 120 0 0 40 0 40 160 0 160 0 0 40 0 40 120 0 120 0 0
40 0 40 40 0 40 0 0 40 0 40 80 0 80 0 0 40 0 40 40 0 40 0 0 40 0 40 40 0 40
0 0 40 0 40 80 0 80 0 0 40 0 40 160 0 160 0 0 40 0 40 160 0 160 0 0 -40z
m160 -190 c0 -5 -18 -10 -40 -10 -22 0 -40 5 -40 10 0 6 18 10 40 10 22 0 40
-4 40 -10z m-440 -189 c0 -11 -59 -36 -67 -27 -3 3 1 6 10 6 10 0 17 7 17 15
0 8 9 15 20 15 11 0 20 -4 20 -9z m353 -308 c-7 -2 -21 -2 -30 0 -10 3 -4 5
12 5 17 0 24 -2 18 -5z m87 -383 c0 -5 -5 -10 -11 -10 -5 0 -7 5 -4 10 3 6 8
10 11 10 2 0 4 -4 4 -10z m-15 -41 c0 -7 -8 -15 -17 -17 -18 -3 -25 18 -11 32
10 10 28 1 28 -15z m-209 -154 c-9 -13 -16 -31 -16 -40 0 -8 -9 -15 -20 -15
-22 0 -18 25 6 34 8 3 14 15 14 26 0 12 7 20 16 20 15 0 15 -2 0 -25z m4 -144
c0 -6 -4 -13 -10 -16 -5 -3 -10 1 -10 9 0 9 5 16 10 16 6 0 10 -4 10 -9z
m-202 -28 c2 -7 -6 -21 -17 -32 -13 -13 -21 -34 -21 -56 0 -24 -5 -35 -15 -35
-25 0 -20 95 6 121 21 21 40 22 47 2z m8517 -1263 c3 -5 1 -10 -4 -10 -6 0
-11 5 -11 10 0 6 2 10 4 10 3 0 8 -4 11 -10z m368 -67 c-13 -2 -33 -2 -45 0
-13 2 -3 4 22 4 25 0 35 -2 23 -4z m60 -70 c-24 -2 -62 -2 -85 0 -24 2 -5 4
42 4 47 0 66 -2 43 -4z m277 -43 l0 -40 120 0 c73 0 120 4 120 10 0 6 18 10
40 10 22 0 40 -4 40 -10 0 -5 -18 -10 -40 -10 l-40 0 0 -40 0 -40 40 0 40 0 0
-80 0 -80 120 0 120 0 0 -80 0 -80 40 0 40 0 0 40 0 40 120 0 120 0 0 -40 0
-40 80 0 80 0 0 -40 0 -40 40 0 40 0 0 -40 0 -40 40 0 40 0 0 -160 0 -160 -40
0 -40 0 0 -80 0 -80 -40 0 -40 0 0 -40 0 -40 120 0 120 0 0 -40 0 -40 80 0 80
0 0 -80 0 -80 80 0 80 0 0 -80 0 -80 80 0 80 0 0 -40 0 -40 40 0 40 0 0 -80 0
-80 80 0 80 0 0 -40 0 -40 -40 0 -40 0 0 -40 0 -40 40 0 40 0 0 -40 0 -40 -40
0 -40 0 0 -40 0 -40 40 0 40 0 0 -40 0 -40 40 0 40 0 0 -40 0 -40 40 0 40 0 0
-80 0 -80 40 0 40 0 0 -80 0 -80 -40 0 -40 0 0 -40 0 -40 40 0 40 0 0 -160 0
-160 40 0 40 0 0 -80 0 -80 40 0 40 0 0 -80 0 -80 -120 0 -120 0 0 -40 0 -40
-40 0 -40 0 0 -80 0 -80 40 0 40 0 0 -160 0 -160 40 0 40 0 0 -80 0 -80 120 0
120 0 0 -40 0 -40 40 0 40 0 0 -40 0 -40 40 0 40 0 0 -40 0 -40 40 0 40 0 0
-40 0 -40 -40 0 -40 0 0 -40 0 -40 40 0 40 0 0 -40 0 -40 -80 0 -80 0 0 -40 0
-40 40 0 40 0 0 -40 0 -40 -40 0 -40 0 0 -160 0 -160 -40 0 -40 0 0 -40 0 -40
-40 0 -40 0 0 -80 0 -80 -120 0 -120 0 0 -40 0 -40 -40 0 -40 0 0 -40 0 -40
40 0 c22 0 40 -4 40 -10 0 -6 -60 -10 -160 -10 -100 0 -160 4 -160 10 0 6 -18
10 -40 10 l-40 0 0 -45 0 -45 -40 0 c-29 0 -40 -4 -40 -15 0 -12 -16 -15 -80
-15 -73 0 -80 2 -80 20 0 18 -7 20 -80 20 -79 0 -80 0 -80 -25 0 -25 -1 -25
-80 -25 -64 0 -80 -3 -80 -15 0 -12 -20 -15 -120 -15 l-120 0 0 40 0 40 -120
0 c-113 0 -120 -1 -120 -20 0 -17 -7 -20 -40 -20 -33 0 -40 -3 -40 -20 0 -11
-7 -20 -15 -20 -8 0 -26 -11 -40 -25 -21 -22 -25 -35 -25 -80 l0 -55 -35 0
c-34 0 -35 -1 -37 -42 l-1 -43 -4 43 c-4 42 -4 42 -44 42 -39 0 -39 0 -39 40
l0 40 -40 0 -40 0 0 -40 0 -40 -40 0 -40 0 0 -120 c0 -113 1 -120 20 -120 17
0 20 -7 20 -40 0 -33 -3 -40 -20 -40 -17 0 -20 7 -20 40 l0 40 -40 0 -40 0 0
-40 0 -40 -40 0 -40 0 0 -80 0 -80 -40 0 -40 0 0 -120 0 -120 -40 0 -40 0 0
-80 0 -80 -40 0 -40 0 0 -40 0 -40 -40 0 -40 0 0 -40 0 -40 -40 0 -40 0 0 -40
0 -40 -40 0 -40 0 0 -40 0 -40 -80 0 -80 0 0 -80 0 -80 -40 0 -40 0 0 -120 0
-120 -80 0 -80 0 0 -40 0 -40 40 0 40 0 0 -40 0 -40 80 0 80 0 0 -40 0 -40 40
0 40 0 0 -40 0 -40 40 0 40 0 0 -160 0 -160 40 0 40 0 0 -120 0 -120 40 0 40
0 0 -80 0 -80 40 0 40 0 0 -40 0 -40 40 0 40 0 0 -120 0 -120 40 0 40 0 0 -80
0 -80 40 0 40 0 0 -40 0 -40 40 0 40 0 0 -120 0 -120 40 0 40 0 0 -120 0 -120
40 0 40 0 0 -240 0 -240 -80 0 -80 0 0 -240 0 -240 -40 0 -40 0 0 -120 0 -120
40 0 40 0 0 -240 0 -240 40 0 40 0 0 -200 0 -200 40 0 40 0 0 -40 0 -40 -40 0
-40 0 0 -160 0 -160 -40 0 -40 0 0 -80 0 -80 -40 0 -40 0 0 -40 0 -40 -40 0
-40 0 0 -80 0 -80 -40 0 -40 0 0 -40 0 -40 -40 0 -40 0 0 -40 0 -40 -80 0 -80
0 0 -40 0 -40 -40 0 -40 0 0 -40 0 -40 -240 0 -240 0 0 -40 0 -40 -40 0 -40 0
0 40 0 40 -160 0 -160 0 0 40 0 40 -120 0 -120 0 0 40 0 40 -120 0 -120 0 0
-50 0 -50 -80 0 c-47 0 -80 -4 -80 -10 0 -5 -18 -10 -40 -10 -33 0 -40 3 -40
20 0 17 -7 20 -40 20 l-40 0 0 -40 0 -40 -240 0 -240 0 0 -40 0 -40 -40 0 -40
0 0 80 0 80 -38 0 -39 0 -6 180 c-4 99 -4 261 0 360 l6 180 -41 0 -42 0 0 40
0 40 -160 0 -160 0 0 -40 0 -40 -40 0 -40 0 0 -40 0 -40 -40 0 -40 0 0 -40 0
-40 -40 0 -40 0 0 -40 0 -40 -80 0 -80 0 0 -40 0 -40 -40 0 -40 0 0 -40 0 -40
-40 0 -40 0 0 -40 0 -40 -80 0 -80 0 0 -80 0 -80 -40 0 -40 0 0 -80 0 -80 -80
0 -80 0 0 -80 0 -80 -40 0 -40 0 0 -40 0 -40 -40 0 -40 0 0 -40 0 -40 -40 0
-40 0 0 -40 0 -40 -40 0 -40 0 0 -40 0 -40 -40 0 -40 0 0 -80 0 -80 -40 0 -40
0 0 -40 0 -40 -80 0 -80 0 0 -40 0 -40 -40 0 -40 0 0 -40 0 -40 -40 0 -40 0 0
-40 0 -40 -40 0 -40 0 0 -40 0 -40 -160 0 -160 0 0 40 0 40 -120 0 -120 0 0
-40 0 -40 -320 0 -320 0 0 40 0 40 -80 0 -80 0 0 40 0 40 -80 0 -80 0 0 40 0
40 -40 0 -40 0 0 40 0 40 -40 0 -40 0 0 40 0 40 -40 0 -40 0 0 80 0 80 -40 0
-40 0 0 240 0 240 -40 0 -40 0 0 280 0 280 -40 0 -40 0 0 40 0 40 -40 0 -40 0
0 40 0 40 -40 0 -40 0 0 40 0 40 40 0 40 0 0 40 0 40 -80 0 -80 0 0 40 0 40
40 0 40 0 0 240 0 240 -40 0 -40 0 0 200 0 200 -40 0 -40 0 0 80 0 80 -40 0
-40 0 0 120 0 120 40 0 40 0 0 80 0 80 -40 0 -40 0 0 120 0 120 40 0 40 0 0
120 0 120 40 0 40 0 0 40 0 40 80 0 80 0 0 40 0 40 -40 0 -40 0 0 40 0 40 280
0 c180 0 280 4 280 10 0 6 18 10 40 10 22 0 40 -4 40 -10 0 -6 44 -8 118 -6
64 2 100 2 80 -1 -37 -4 -38 -5 -38 -44 0 -39 0 -39 -40 -39 l-40 0 0 -40 0
-40 -80 0 -80 0 0 -40 0 -40 80 0 c73 0 80 2 80 20 0 18 7 20 80 20 73 0 80
-2 80 -20 0 -18 7 -20 80 -20 l80 0 0 -40 0 -40 40 0 40 0 0 -80 0 -80 -80 0
-80 0 0 -41 0 -41 198 2 c279 4 282 4 282 -20 0 -18 7 -20 80 -20 l80 0 0 -80
0 -80 40 0 c28 0 40 -4 40 -14 0 -10 22 -16 80 -21 l80 -7 0 -39 0 -39 80 0
80 0 0 -40 0 -40 120 0 120 0 0 -40 0 -40 40 0 c40 0 40 0 40 39 l0 39 76 7
c41 4 78 4 81 1 4 -3 -12 -6 -35 -6 l-42 0 0 -40 0 -40 280 0 c180 0 280 -4
280 -10 0 -5 18 -10 40 -10 22 0 40 5 40 10 0 6 18 10 40 10 l40 0 0 40 0 40
200 0 200 0 0 40 0 40 80 0 80 0 0 40 0 40 80 0 80 0 0 40 0 40 80 0 80 0 0
40 0 40 40 0 40 0 0 40 0 40 40 0 40 0 0 40 0 40 40 0 40 0 0 40 0 40 40 0 40
0 0 40 0 40 80 0 80 0 0 39 c0 39 -1 40 -37 44 -21 2 -3 2 40 -1 l77 -4 0 41
0 41 40 0 c40 0 40 0 40 39 0 22 -5 41 -12 44 -8 2 -9 8 -4 13 5 5 11 4 13 -3
3 -9 30 -13 84 -13 l79 0 0 40 0 40 40 0 40 0 0 40 0 40 40 0 40 0 0 40 0 40
40 0 40 0 0 80 0 80 -35 0 c-26 0 -45 9 -70 32 -43 38 -44 48 -5 48 l30 0 0
120 0 120 40 0 40 0 0 40 0 40 60 0 60 0 0 -40 c0 -33 -3 -40 -20 -40 -17 0
-20 -7 -20 -40 l0 -40 40 0 40 0 0 -120 0 -120 40 0 40 0 0 -80 0 -80 40 0 40
0 0 120 0 120 80 0 80 0 0 120 0 120 40 0 40 0 0 160 0 160 40 0 40 0 0 160 0
160 -40 0 -40 0 0 120 0 120 -40 0 -40 0 0 40 0 40 40 0 40 0 0 40 0 40 40 0
40 0 0 80 0 80 40 0 40 0 0 40 0 40 40 0 40 0 0 80 0 80 -40 0 -40 0 0 40 0
40 -80 0 -80 0 0 40 0 40 -160 0 -160 0 0 40 0 40 -40 0 -40 0 0 40 0 40 -40
0 -40 0 0 40 0 40 -40 0 -40 0 0 80 0 80 -40 0 -40 0 0 120 0 120 -40 0 -40 0
0 40 0 40 -120 0 -120 0 0 -40 0 -40 -40 0 -40 0 0 40 0 40 -40 0 -40 0 0 40
0 40 -80 0 -80 0 0 40 0 40 -40 0 -40 0 0 40 0 40 -40 0 -40 0 0 40 0 40 -120
0 -120 0 0 40 0 40 -80 0 -80 0 0 -40 0 -40 40 0 40 0 0 -40 0 -40 -40 0 c-33
0 -40 -3 -40 -20 0 -11 -4 -20 -10 -20 -5 0 -15 9 -22 20 -11 18 -24 20 -110
20 l-98 0 0 40 0 40 -80 0 c-79 0 -80 0 -80 -25 0 -25 -1 -25 -80 -25 -64 0
-80 -3 -80 -15 0 -12 -20 -15 -120 -15 -113 0 -120 -1 -120 -20 0 -19 -7 -20
-120 -20 -113 0 -120 -1 -120 -20 0 -18 -7 -20 -80 -20 l-80 0 0 -40 0 -40
-120 0 c-73 0 -120 -4 -120 -10 0 -5 -18 -10 -40 -10 l-40 0 0 50 0 50 -40 0
c-33 0 -40 -3 -40 -20 0 -17 -7 -20 -40 -20 -22 0 -40 -4 -40 -10 0 -5 -18
-10 -40 -10 -22 0 -40 -4 -40 -10 0 -5 -18 -10 -40 -10 l-40 0 0 -50 0 -50
-40 0 c-22 0 -40 -4 -40 -10 0 -5 -18 -10 -40 -10 l-40 0 0 40 0 40 -40 0
c-33 0 -40 -3 -40 -20 0 -14 -7 -20 -22 -20 -25 0 -58 -27 -58 -47 0 -9 -13
-13 -40 -13 -22 0 -40 -4 -40 -10 0 -5 -18 -10 -40 -10 -33 0 -40 -3 -40 -20
0 -18 -7 -20 -80 -20 -73 0 -80 2 -80 20 0 17 -7 20 -40 20 -36 0 -40 -2 -40
-25 0 -22 -4 -25 -40 -25 -29 0 -40 -4 -40 -15 0 -11 -11 -15 -40 -15 -33 0
-40 -3 -40 -20 0 -26 -34 -60 -60 -60 -17 0 -20 -7 -20 -40 l0 -40 -40 0 -40
0 0 -40 0 -40 -280 0 -280 0 0 -160 0 -160 -40 0 -40 0 0 -120 0 -120 -80 0
-80 0 0 320 0 320 80 0 80 0 0 80 0 80 -40 0 -40 0 0 40 0 40 -80 0 -80 0 0
120 0 120 80 0 80 0 0 80 0 80 -40 0 -40 0 0 40 0 40 120 0 120 0 0 40 0 40
-40 0 -40 0 0 120 0 120 -40 0 -40 0 0 200 0 200 -200 0 -200 0 0 120 0 120
40 0 40 0 0 40 0 40 80 0 80 0 0 40 0 40 40 0 40 0 0 40 0 40 80 0 80 0 0 -40
0 -40 120 0 120 0 0 80 0 80 -40 0 -40 0 0 120 0 120 -40 0 -40 0 0 120 0 120
-40 0 -40 0 0 80 0 80 -40 0 -40 0 0 40 0 40 -40 0 -40 0 0 -40 0 -40 -40 0
-40 0 0 120 0 120 -40 0 -40 0 0 360 0 360 -40 0 -40 0 0 40 0 40 40 0 40 0 0
40 0 40 -40 0 -40 0 0 120 0 120 40 0 40 0 0 120 0 120 40 0 40 0 0 80 0 80
40 0 40 0 0 40 0 40 80 0 80 0 0 40 0 40 40 0 40 0 0 200 0 200 40 0 40 0 0
40 0 40 40 0 40 0 0 40 0 40 40 0 40 0 0 40 0 40 40 0 40 0 0 40 0 40 40 0 40
0 0 40 0 40 40 0 40 0 0 40 0 40 80 0 80 0 0 40 0 40 80 0 80 0 0 80 0 80 80
0 80 0 0 39 c0 39 -1 40 -37 44 -21 2 -3 2 40 -1 l77 -4 0 40 c0 23 -5 42 -12
45 -8 2 -9 8 -4 13 5 5 11 4 13 -3 3 -9 30 -13 84 -13 l79 0 0 40 0 40 -42 0
c-23 0 -39 3 -35 6 3 3 40 3 81 -1 l76 -7 0 -39 0 -39 80 0 80 0 0 40 0 40 40
0 c33 0 40 3 40 20 0 18 7 20 80 20 68 0 80 -3 80 -17 0 -14 12 -15 117 -10
64 4 119 11 122 16 3 5 41 12 84 16 42 4 77 11 77 14 0 10 209 34 241 28 13
-2 18 -2 12 0 -26 9 -12 23 21 23 19 0 38 5 41 10 3 6 24 10 46 10 27 0 39 4
39 14 0 14 25 20 118 32 23 4 42 10 42 15 0 5 18 9 40 9 22 0 40 5 40 10 0 6
18 10 40 10 22 0 40 4 40 8 0 7 150 31 215 34 17 0 -6 5 -50 9 -107 12 -245 2
-245 -17 0 -10 -12 -14 -40 -14 -22 0 -40 -4 -40 -10 0 -5 -22 -10 -48 -10
-27 0 -57 -6 -68 -15 -11 -8 -41 -14 -71 -15 -37 0 -53 -4 -53 -13 0 -18 -88
-44 -189 -57 -120 -14 -131 -14 -131 10 0 17 7 20 43 22 l42 1 -42 4 c-34 3
-43 8 -43 23 0 15 12 19 80 25 58 5 80 11 80 21 0 10 12 14 40 14 l40 0 0 60
0 60 80 0 80 0 0 40 0 40 80 0 c47 0 80 4 80 10 0 14 93 13 125 -2 24 -11 24
-12 9 -30 -18 -19 -54 -25 -54 -8 0 6 -18 10 -40 10 -22 0 -40 -4 -40 -10 0
-5 18 -10 40 -10 22 0 40 -4 40 -10 0 -5 18 -10 40 -10 22 0 40 5 40 10 0 6
33 10 80 10 l80 0 0 40 0 40 40 0 40 0 0 40 0 40 -40 0 c-33 0 -40 3 -40 20 0
17 7 20 40 20 33 0 40 -3 40 -20 0 -19 6 -20 113 -19 61 0 136 4 165 8 58 8
122 -6 122 -26 0 -8 15 -13 40 -13 l40 0 0 -65 0 -65 80 0 c73 0 80 -2 80 -20
0 -18 7 -20 80 -20 72 0 80 2 80 19 0 16 -11 20 -80 26 -58 5 -80 11 -80 21 0
10 12 14 40 14 33 0 40 3 40 20 0 18 7 20 59 20 32 0 85 2 117 4 32 2 42 1 22
-1 l-38 -4 0 -50 0 -49 40 0 c22 0 40 5 40 10 0 6 33 10 80 10 64 0 80 -3 80
-15 0 -11 11 -15 40 -15 l40 0 0 55 0 55 80 0 c73 0 80 2 80 20 0 17 7 20 40
20 29 0 40 -4 40 -15 0 -11 11 -15 40 -15 32 0 40 -4 40 -18 0 -17 10 -19 120
-19 88 0 120 4 120 13 0 8 -27 14 -80 19 -58 5 -80 11 -80 21 0 10 -12 14 -40
14 -29 0 -40 4 -40 15 0 11 -12 15 -42 16 -32 1 -22 4 36 12 60 7 80 7 86 -3
5 -9 28 -10 84 -5 73 7 76 7 76 -14 0 -18 6 -21 40 -21 33 0 40 3 40 20 0 17
7 20 40 20 l40 0 0 40 0 40 -40 0 c-22 0 -40 5 -40 10 0 6 -18 10 -40 10 -22
0 -40 5 -40 10 0 6 18 10 40 10 22 0 40 -4 40 -9 0 -5 36 -12 80 -16 69 -6 80
-10 80 -26 0 -15 7 -19 40 -19 l40 0 0 55 0 55 120 0 c100 0 120 -2 120 -15 0
-11 11 -15 40 -15 29 0 40 4 40 15 0 13 24 15 160 15 l160 0 0 40 0 40 80 0
80 0 0 40 0 40 40 0 40 0 0 -40 0 -40 80 0 80 0 0 40 0 40 40 0 40 0 0 -40 0
-40 40 0 40 0 0 40 0 40 160 0 160 0 0 30 c0 28 2 30 40 30 22 0 40 5 40 10 0
6 18 10 40 10 l40 0 0 -40z m-1170 -36 c0 -2 -7 -4 -15 -4 -8 0 -15 4 -15 10
0 5 7 7 15 4 8 -4 15 -8 15 -10z m-15310 -70 c0 -13 13 -15 84 -12 59 2 82 0
79 -8 -2 -7 12 -27 31 -46 28 -28 36 -43 36 -72 0 -35 1 -36 40 -36 l40 0 0
-40 0 -40 60 0 60 0 0 -40 c0 -36 3 -40 25 -40 23 0 25 -4 25 -40 l0 -40 40 0
40 0 0 -40 c0 -29 4 -40 15 -40 11 0 15 -11 15 -40 0 -36 3 -40 25 -40 25 0
25 -1 25 -80 l0 -80 40 0 40 0 0 -160 c0 -136 2 -160 15 -160 11 0 15 -11 15
-40 0 -29 -4 -40 -15 -40 -12 0 -15 -16 -15 -80 l0 -80 -40 0 -40 0 0 -40 c0
-29 4 -40 15 -40 11 0 15 -11 15 -40 l0 -40 -55 0 -55 0 0 -80 0 -80 -80 0
-80 0 0 -40 0 -40 -40 0 -40 0 0 -80 0 -80 -80 0 -80 0 0 -80 0 -80 -160 0
-160 0 0 80 0 80 -40 0 -40 0 0 80 0 80 -40 0 -40 0 0 40 0 40 -40 0 -40 0 0
40 0 40 -40 0 -40 0 0 40 0 40 -40 0 -40 0 0 40 0 40 -40 0 -40 0 0 40 0 40
-40 0 -40 0 0 40 0 40 -41 0 -42 0 6 160 c5 153 4 160 -14 160 -16 0 -19 7
-19 40 0 29 4 40 15 40 12 0 15 16 15 80 0 64 -3 80 -15 80 -12 0 -15 16 -15
80 0 64 3 80 15 80 11 0 15 11 15 40 l0 40 40 0 40 0 0 40 0 40 40 0 40 0 0
40 0 40 40 0 40 0 0 40 0 40 80 0 80 0 0 40 0 40 40 0 c22 0 40 5 40 10 0 6
18 10 40 10 38 0 40 2 40 30 l0 30 80 0 c64 0 80 3 80 15 0 11 11 15 40 15 30
0 40 -4 40 -16z m15280 6 c0 -5 -2 -10 -4 -10 -3 0 -8 5 -11 10 -3 6 -1 10 4
10 6 0 11 -4 11 -10z m-2364 -165 c17 -13 8 -14 -88 -15 -127 0 -147 18 -25
23 45 1 85 4 88 5 3 1 14 -5 25 -13z m1404 -5 c0 -5 -9 -10 -21 -10 -11 0 -17
5 -14 10 3 6 13 10 21 10 8 0 14 -4 14 -10z m-177 -7 c-13 -2 -33 -2 -45 0
-13 2 -3 4 22 4 25 0 35 -2 23 -4z m-1663 -43 c0 -21 -24 -28 -35 -10 -8 14 3
30 21 30 8 0 14 -9 14 -20z m783 -37 c-13 -2 -33 -2 -45 0 -13 2 -3 4 22 4 25
0 35 -2 23 -4z m-1023 -19 c0 -14 -3 -14 -15 -4 -8 7 -15 14 -15 16 0 2 7 4
15 4 8 0 15 -7 15 -16z m301 -14 c12 0 19 -7 19 -20 0 -22 -6 -23 -99 -14 -52
6 -61 10 -61 27 0 18 5 19 61 13 34 -3 70 -6 80 -6z m19 -100 c0 -5 -18 -10
-40 -10 -22 0 -40 5 -40 10 0 6 18 10 40 10 22 0 40 -4 40 -10z m-720 -85 c0
-30 -11 -32 -33 -7 -19 21 -13 32 15 32 13 0 18 -7 18 -25z m-216 -31 c18 -7
12 -24 -10 -24 -8 0 -14 7 -14 15 0 17 2 18 24 9z m-201 -71 c-13 -2 -33 -2
-45 0 -13 2 -3 4 22 4 25 0 35 -2 23 -4z m257 -43 c0 -17 -7 -20 -40 -20 -33
0 -40 3 -40 20 0 17 7 20 40 20 33 0 40 -3 40 -20z m-277 -7 c-24 -2 -43 -8
-43 -13 0 -5 19 -10 43 -12 23 -2 -2 -4 -55 -3 -61 0 -93 3 -87 10 11 11 87
23 144 22 l40 0 -42 -4z m-123 -63 c0 -5 -18 -10 -40 -10 -22 0 -40 5 -40 10
0 6 18 10 40 10 22 0 40 -4 40 -10z m-240 -40 c0 -5 -18 -10 -40 -10 -22 0
-40 5 -40 10 0 6 18 10 40 10 22 0 40 -4 40 -10z m-737 -407 c-13 -2 -33 -2
-45 0 -13 2 -3 4 22 4 25 0 35 -2 23 -4z m-9023 -2683 l0 -40 40 0 40 0 0 -40
0 -40 80 0 80 0 0 -80 0 -80 40 0 40 0 0 -40 0 -40 40 0 40 0 0 -40 0 -40 40
0 40 0 0 -40 0 -40 40 0 40 0 0 -80 0 -80 40 0 40 0 0 -120 0 -120 40 0 40 0
0 -80 c0 -64 3 -80 15 -80 11 0 15 -11 15 -40 0 -29 -4 -40 -15 -40 -13 0 -15
-24 -15 -160 l0 -160 -40 0 -40 0 0 -40 0 -40 -120 0 -120 0 0 -40 0 -40 -40
0 -40 0 0 -40 0 -40 -40 0 -40 0 0 -80 c0 -79 0 -80 -25 -80 -22 0 -25 -4 -25
-40 0 -29 -4 -40 -15 -40 -12 0 -15 -16 -15 -80 l0 -80 -40 0 -40 0 0 -80 0
-80 -40 0 -40 0 0 -40 0 -40 -40 0 -40 0 0 -40 0 -40 -40 0 -40 0 0 -80 0 -80
-40 0 -40 0 0 -40 0 -40 -80 0 -80 0 0 -40 0 -40 -120 0 -120 0 0 40 0 40 -80
0 -80 0 0 40 0 40 -40 0 -40 0 0 40 0 40 -40 0 -40 0 0 40 0 40 -40 0 -40 0 0
80 0 80 -40 0 -40 0 0 40 c0 33 -3 40 -20 40 -17 0 -20 7 -20 40 0 39 -1 40
-35 40 -34 0 -35 1 -35 40 0 29 4 40 15 40 12 0 15 16 15 80 0 73 -2 80 -20
80 -17 0 -20 7 -20 40 0 33 -3 40 -20 40 -17 0 -20 7 -20 40 0 29 -4 40 -15
40 -11 0 -15 11 -15 40 0 29 4 40 15 40 12 0 15 16 15 80 l0 80 -40 0 -40 0 0
40 c0 33 3 40 20 40 18 0 20 7 20 80 0 73 -2 80 -20 80 -18 0 -20 7 -20 80 0
73 -2 80 -20 80 -17 0 -20 7 -20 40 0 33 -3 40 -20 40 -18 0 -20 7 -20 80 0
73 2 80 20 80 17 0 20 7 20 40 0 33 -3 40 -20 40 -19 0 -20 7 -20 160 l0 160
40 0 40 0 0 40 0 40 40 0 40 0 0 40 0 40 40 0 40 0 0 40 0 40 80 0 80 0 0 40
0 40 80 0 c61 0 80 3 80 14 0 11 46 15 240 21 226 7 240 8 240 26 0 15 7 19
40 19 l40 0 0 40 0 40 160 0 160 0 0 -40z m5781 -1506 c-1 -27 -7 -50 -12 -52
-5 -2 -9 -21 -9 -43 0 -21 -4 -39 -10 -39 -6 0 -10 33 -10 80 0 47 4 80 10 80
6 0 10 7 10 16 0 9 6 14 13 11 8 -2 11 -20 8 -53z m10136 -196 c-2 -13 -4 -3
-4 22 0 25 2 35 4 23 2 -13 2 -33 0 -45z m626 55 c-13 -2 -33 -2 -45 0 -13 2
-3 4 22 4 25 0 35 -2 23 -4z m-403 -80 c0 -10 -42 -53 -52 -53 -4 0 -8 14 -8
30 0 27 3 30 30 30 17 0 30 -3 30 -7z m-77 -80 c-13 -2 -33 -2 -45 0 -13 2 -3
4 22 4 25 0 35 -2 23 -4z m-4012 -643 c22 0 29 -5 29 -20 0 -16 -7 -20 -38
-20 -38 0 -82 22 -82 42 0 6 12 8 31 4 17 -3 44 -6 60 -6z m-1411 -100 c0 -5
-18 -10 -40 -10 -22 0 -40 5 -40 10 0 6 18 10 40 10 22 0 40 -4 40 -10z m-880
-115 c0 -8 -7 -15 -16 -15 -14 0 -14 3 -4 15 7 8 14 15 16 15 2 0 4 -7 4 -15z
m-496 -208 c-12 -6 -31 -18 -43 -25 -19 -12 -21 -11 -21 13 0 23 4 25 43 25
38 0 40 -1 21 -13z m-10144 -87 l0 -40 -40 0 -40 0 0 40 0 40 40 0 40 0 0 -40z
m10040 20 c-6 -11 -17 -20 -25 -20 -8 0 -15 9 -15 20 0 15 7 20 25 20 23 0 24
-2 15 -20z m9063 13 c-13 -2 -33 -2 -45 0 -13 2 -3 4 22 4 25 0 35 -2 23 -4z
m-9243 -193 c0 -33 -4 -41 -24 -46 -13 -3 -37 -4 -52 -1 -22 3 -19 4 14 6 l42
1 0 40 c0 22 5 40 10 40 6 0 10 -18 10 -40z m8883 -117 c-35 -2 -91 -2 -125 0
-35 2 -7 3 62 3 69 0 97 -1 63 -3z m-9000 -10 c-13 -2 -33 -2 -45 0 -13 2 -3
4 22 4 25 0 35 -2 23 -4z m-123 -83 c0 -5 -4 -10 -10 -10 -5 0 -10 5 -10 10 0
6 5 10 10 10 6 0 10 -4 10 -10z m-1303 -192 c-2 -24 -4 -5 -4 42 0 47 2 66 4
43 2 -24 2 -62 0 -85z m2803 -133 c0 -11 11 -15 40 -15 29 0 40 4 40 15 0 13
24 15 160 15 l160 0 0 -80 0 -80 -40 0 -40 0 0 -45 0 -45 -40 0 c-29 0 -40 -4
-40 -15 0 -11 -11 -15 -40 -15 -33 0 -40 -3 -40 -20 0 -17 -7 -20 -40 -20 -22
0 -40 -4 -40 -10 0 -5 -18 -10 -40 -10 -22 0 -40 5 -40 10 0 6 -18 10 -40 10
l-40 0 0 -40 0 -40 -120 0 -120 0 0 -39 c0 -39 1 -40 38 -44 20 -2 10 -3 -22
-1 -32 2 -103 4 -157 4 l-99 0 0 40 0 40 40 0 40 0 0 120 0 120 40 0 c40 0 40
0 40 39 0 40 0 40 -42 44 -35 3 -31 4 18 5 97 3 184 -9 184 -24 0 -10 13 -14
40 -14 29 0 40 4 40 15 0 11 11 15 40 15 l40 0 0 40 0 40 40 0 c29 0 40 -4 40
-15z m7634 -148 c-12 -40 -58 -70 -77 -51 -8 8 14 54 25 54 5 0 16 7 25 15 19
20 36 9 27 -18z m-7091 -4 c-13 -2 -33 -2 -45 0 -13 2 -3 4 22 4 25 0 35 -2
23 -4z m-2376 -135 c-2 -13 -4 -3 -4 22 0 25 2 35 4 23 2 -13 2 -33 0 -45z
m8873 -108 c0 -16 4 -31 9 -34 5 -4 17 -31 26 -61 10 -31 24 -55 31 -55 8 0
14 -8 14 -18 0 -10 4 -22 9 -27 4 -6 16 -34 27 -62 10 -29 23 -53 29 -53 10 0
27 -26 41 -62 3 -10 17 -18 30 -18 13 0 24 -4 24 -10 0 -5 -18 -10 -39 -10
-22 0 -41 -5 -43 -11 -3 -8 -27 -9 -81 -4 -59 6 -77 11 -77 23 0 12 -10 14
-56 9 -31 -3 -94 -3 -140 0 l-84 6 0 38 c0 32 -3 39 -20 39 -17 0 -20 7 -20
40 0 22 -4 40 -10 40 -5 0 -10 18 -10 40 l0 40 60 0 60 0 0 40 c0 24 5 40 12
40 20 0 48 32 48 57 0 15 6 23 18 23 9 0 24 6 33 13 10 7 36 11 63 9 43 -4 46
-6 46 -32z m-9120 -30 l0 -40 -80 0 -80 0 0 -40 0 -40 40 0 40 0 0 -40 0 -40
80 0 80 0 0 -40 0 -40 40 0 40 0 0 -40 0 -40 40 0 40 0 0 -40 0 -40 80 0 80 0
0 -40 0 -40 80 0 80 0 0 -300 0 -300 80 0 c64 0 80 -3 80 -15 0 -11 12 -15 43
-17 l42 -1 -45 -7 -45 -7 43 -1 c23 -1 42 -6 42 -12 0 -5 18 -10 40 -10 33 0
40 -3 40 -20 0 -17 7 -20 40 -20 22 0 40 -4 40 -10 0 -5 -18 -10 -40 -10 -22
0 -40 5 -40 10 0 11 -87 13 -179 4 l-61 -7 0 -38 c0 -39 0 -39 43 -40 l42 -2
-50 -7 c-74 -12 -195 -12 -195 0 0 6 -100 10 -280 10 l-280 0 0 40 0 40 120 0
120 0 0 40 0 40 -40 0 -40 0 0 40 0 40 -80 0 -80 0 0 40 0 40 -40 0 -40 0 0
80 0 80 -40 0 -40 0 0 80 0 80 -40 0 -40 0 0 80 0 80 -40 0 -40 0 0 160 0 160
40 0 40 0 0 120 0 120 160 0 160 0 0 -40z m2819 4 c50 -6 61 -10 61 -25 0 -15
8 -19 40 -19 l40 0 0 -125 0 -125 -80 0 c-64 0 -80 -3 -80 -15 0 -12 -18 -15
-99 -15 -139 0 -221 -10 -221 -26 0 -9 14 -15 43 -16 l42 -1 -42 -4 c-29 -3
-43 -9 -43 -19 0 -12 -27 -14 -160 -14 l-160 0 0 -40 0 -40 -80 0 c-73 0 -80
-2 -80 -20 0 -17 -7 -20 -40 -20 l-40 0 0 -45 c0 -51 4 -49 -99 -39 l-61 7 0
38 c0 39 0 39 40 39 40 0 40 0 40 39 0 22 -5 41 -12 44 -8 2 -9 8 -4 13 5 5
11 4 13 -3 3 -8 22 -13 44 -13 39 0 39 0 39 39 0 22 -5 41 -12 44 -8 2 -9 8
-4 13 5 5 11 4 13 -3 3 -8 22 -13 44 -13 39 0 39 0 39 40 0 39 1 40 35 40 34
0 35 1 35 40 0 32 4 40 19 40 10 0 24 7 31 15 7 8 19 15 26 15 8 0 14 5 14 10
0 6 18 10 40 10 28 0 40 4 40 14 0 10 22 16 80 21 69 6 80 10 80 26 0 15 7 19
40 19 33 0 40 3 40 20 0 17 7 20 40 20 28 0 40 4 40 15 0 11 18 15 83 18 45 1
89 4 98 5 9 1 44 -1 78 -4z m-2356 -131 c-13 -2 -33 -2 -45 0 -13 2 -3 4 22 4
25 0 35 -2 23 -4z m-3503 -193 l0 -40 40 0 40 0 0 -40 0 -40 -80 0 -80 0 0
-40 0 -40 40 0 40 0 0 -200 0 -200 -40 0 -40 0 0 -80 0 -80 -40 0 -40 0 0
-120 0 -120 -120 0 -120 0 0 -80 0 -80 -120 0 -120 0 0 -40 0 -40 -160 0 -160
0 0 40 0 40 -160 0 -160 0 0 40 0 40 -40 0 -40 0 0 80 0 80 -40 0 -40 0 0 40
0 40 -240 0 -240 0 0 40 0 40 -240 0 -240 0 0 40 0 40 -40 0 -40 0 0 40 0 40
-80 0 -80 0 0 120 0 120 40 0 40 0 0 40 0 40 80 0 80 0 0 -40 0 -40 120 0 120
0 0 40 0 40 160 0 160 0 0 -40 0 -40 160 0 160 0 0 -40 0 -40 80 0 80 0 0 -40
0 -40 -40 0 -40 0 0 -40 0 -40 240 0 240 0 0 40 0 40 40 0 40 0 0 40 0 40 40
0 40 0 0 80 0 80 80 0 80 0 0 40 0 40 80 0 80 0 0 40 0 40 -40 0 -40 0 0 40 0
40 40 0 40 0 0 40 0 40 240 0 240 0 0 -40z m11600 2 c0 -31 -5 -41 -29 -55
-60 -35 -88 -19 -83 48 l4 45 54 0 54 0 0 -38z m-5900 -52 c0 -5 -4 -10 -10
-10 -5 0 -10 5 -10 10 0 6 5 10 10 10 6 0 10 -4 10 -10z m7340 -110 c0 -5 -18
-10 -40 -10 -22 0 -40 5 -40 10 0 6 18 10 40 10 22 0 40 -4 40 -10z m-205 -10
l50 -7 -42 -2 c-24 0 -43 -5 -43 -11 0 -6 -33 -10 -80 -10 -63 0 -80 3 -80 14
0 21 107 30 195 16z m-355 -40 c0 -5 -18 -10 -40 -10 -22 0 -40 5 -40 10 0 6
18 10 40 10 22 0 40 -4 40 -10z m-1359 -102 l-3 -48 41 0 c23 0 41 5 41 10 0
6 18 10 40 10 33 0 40 -3 40 -20 0 -17 -7 -20 -40 -20 -22 0 -40 -4 -40 -10 0
-5 -18 -10 -40 -10 -33 0 -40 -4 -40 -19 0 -16 -11 -20 -76 -26 -41 -4 -78 -4
-81 -1 -4 3 12 6 35 6 l42 0 0 40 c0 22 -4 40 -10 40 -14 0 -12 68 3 85 7 9
27 14 52 12 l39 -2 -3 -47z m464 38 c11 -2 -22 -4 -72 -5 -51 0 -93 3 -93 7 0
7 117 6 165 -2z m-4945 -206 l0 -40 40 0 40 0 0 -80 c0 -50 -4 -80 -11 -80 -6
0 -18 -7 -26 -16 -10 -9 -25 -13 -37 -10 -12 3 -35 6 -52 6 -18 0 -34 6 -37
13 -3 9 7 11 39 8 l44 -3 0 81 c0 47 -4 81 -10 81 -5 0 -10 18 -10 40 0 22 5
40 10 40 6 0 10 -18 10 -40z m240 -30 c0 -5 -18 -10 -40 -10 -22 0 -40 5 -40
10 0 6 18 10 40 10 22 0 40 -4 40 -10z m957 -72 c-2 -13 -4 -3 -4 22 0 25 2
35 4 23 2 -13 2 -33 0 -45z m7283 -138 l0 -40 120 0 120 0 0 -40 0 -40 80 0
80 0 0 -40 0 -40 -40 0 -40 0 0 -40 0 -40 40 0 40 0 0 -40 0 -40 40 0 40 0 0
-200 0 -200 40 0 40 0 0 -120 0 -120 40 0 40 0 0 -360 0 -360 -40 0 -40 0 0
-80 0 -80 -40 0 -40 0 0 -160 0 -160 -40 0 -40 0 0 -80 0 -80 -40 0 -40 0 0
-40 0 -40 -40 0 -40 0 0 -80 0 -80 -40 0 -40 0 0 -40 0 -40 -40 0 -40 0 0 -40
0 -40 -80 0 -80 0 0 -40 0 -40 -40 0 -40 0 0 -40 0 -40 -80 0 -80 0 0 -40 0
-40 -80 0 -80 0 0 -40 0 -40 -120 0 -120 0 0 -40 0 -40 -120 0 -120 0 0 -40 0
-40 -120 0 -120 0 0 40 0 40 -80 0 -80 0 0 40 0 40 -80 0 -80 0 0 40 0 40 -80
0 -80 0 0 40 0 40 -40 0 -40 0 0 40 0 40 -40 0 -40 0 0 40 0 40 -40 0 -40 0 0
40 0 40 -80 0 -80 0 0 40 0 40 -40 0 -40 0 0 40 0 40 -40 0 -40 0 0 40 0 40
-40 0 -40 0 0 40 0 40 -80 0 -80 0 0 40 0 40 -40 0 -40 0 0 40 0 40 -40 0 -40
0 0 40 0 40 -120 0 -120 0 0 40 0 40 -120 0 -120 0 0 40 0 40 -80 0 -80 0 0
40 0 40 -80 0 -80 0 0 40 0 40 -80 0 -80 0 0 40 0 40 -40 0 -40 0 0 80 0 80
-80 0 -80 0 0 80 0 80 -40 0 -40 0 0 80 0 80 -40 0 -40 0 0 40 0 40 -40 0 -40
0 0 200 0 200 -40 0 -40 0 0 120 0 120 -40 0 -40 0 0 120 0 120 40 0 40 0 0
80 0 80 40 0 40 0 0 -40 0 -40 80 0 80 0 0 -40 0 -40 40 0 c33 0 40 3 40 20 0
18 7 20 80 20 73 0 80 -2 80 -20 0 -17 7 -20 40 -20 l40 0 0 -40 0 -40 120 0
120 0 0 -40 0 -40 80 0 80 0 0 -40 0 -40 120 0 120 0 0 -40 0 -40 160 0 160 0
0 -40 0 -40 360 0 360 0 0 40 0 40 120 0 120 0 0 40 0 40 120 0 120 0 0 40 0
40 40 0 c40 0 40 0 40 39 l0 38 53 6 c28 3 100 2 160 -1 l107 -5 0 27 c0 24 3
26 40 26 29 0 40 4 40 15 0 13 20 15 120 15 l120 0 0 40 0 40 40 0 40 0 0 40
0 40 -40 0 c-33 0 -40 3 -40 20 0 17 7 20 40 20 33 0 40 -3 40 -20 0 -18 7
-20 80 -20 l80 0 0 40 0 40 40 0 40 0 0 40 0 40 200 0 200 0 0 -40z m-9756
-45 c-4 -9 5 -26 22 -43 l29 -27 -27 -3 c-16 -2 -28 -8 -28 -13 0 -15 -70 -10
-86 5 -8 8 -14 30 -14 50 l0 35 53 4 c28 2 53 4 54 5 1 1 0 -5 -3 -13z m2396
-15 c0 -17 -7 -20 -40 -20 -33 0 -40 3 -40 20 0 17 7 20 40 20 33 0 40 -3 40
-20z m-2292 -128 c2 -7 -3 -12 -12 -12 -9 0 -16 7 -16 16 0 17 22 14 28 -4z
m714 -104 c-7 -7 -32 -11 -57 -9 -44 2 -45 2 -45 -28 l0 -31 -65 0 c-54 0 -63
3 -59 15 4 9 15 20 25 26 11 5 19 16 19 24 0 12 18 15 97 15 75 0 94 -3 85
-12z m1575 -50 c-2 -13 -4 -3 -4 22 0 25 2 35 4 23 2 -13 2 -33 0 -45z m-1917
9 c0 -20 -5 -23 -34 -22 -19 0 -38 4 -42 8 -4 4 -25 7 -46 7 -52 0 -48 18 5
23 110 10 117 9 117 -16z m6783 -184 c-13 -2 -33 -2 -45 0 -13 2 -3 4 22 4 25
0 35 -2 23 -4z m-10223 -123 c0 -22 -3 -40 -8 -40 -4 0 -6 18 -4 40 2 22 6 40
8 40 2 0 4 -18 4 -40z m1767 -182 c-2 -13 -4 -3 -4 22 0 25 2 35 4 23 2 -13 2
-33 0 -45z m-2807 2 c0 -17 -7 -20 -40 -20 -33 0 -40 3 -40 20 0 17 7 20 40
20 33 0 40 -3 40 -20z m249 -182 c-13 -5 -39 -7 -59 -5 -33 3 -33 4 8 5 31 2
42 6 42 18 0 14 2 14 16 3 14 -12 13 -14 -7 -21z m-229 -40 l0 -38 -50 0 -50
0 0 40 0 39 50 -2 50 -2 0 -37z m1097 -100 c-2 -13 -4 -3 -4 22 0 25 2 35 4
23 2 -13 2 -33 0 -45z m4226 -15 c-13 -2 -33 -2 -45 0 -13 2 -3 4 22 4 25 0
35 -2 23 -4z m11544 -65 c-2 -13 -4 -3 -4 22 0 25 2 35 4 23 2 -13 2 -33 0
-45z m-20407 -58 l0 -40 240 0 240 0 0 -40 0 -40 80 0 80 0 0 -40 0 -40 80 0
80 0 0 -80 0 -80 80 0 80 0 0 -120 0 -120 80 0 80 0 0 -120 0 -120 80 0 80 0
0 -40 0 -40 -80 0 -80 0 0 -40 0 -40 -40 0 -40 0 0 -80 0 -80 -80 0 -80 0 0
-40 0 -40 -240 0 -240 0 0 -40 0 -40 -120 0 -120 0 0 -40 0 -40 -80 0 -80 0 0
-40 0 -40 -160 0 -160 0 0 -40 0 -40 -120 0 -120 0 0 -40 0 -40 -80 0 -80 0 0
-40 0 -40 -160 0 -160 0 0 -40 0 -40 -120 0 -120 0 0 80 0 80 -120 0 -120 0 0
40 0 40 40 0 40 0 0 40 0 40 40 0 40 0 0 40 0 40 -120 0 -120 0 0 80 0 80 40
0 40 0 0 80 0 80 -120 0 -120 0 0 40 0 40 40 0 40 0 0 40 0 40 40 0 40 0 0 40
0 40 -80 0 -80 0 0 40 0 40 -80 0 -80 0 0 40 0 40 40 0 40 0 0 40 0 40 40 0
40 0 0 40 0 40 -40 0 -40 0 0 80 0 80 80 0 80 0 0 -40 0 -40 40 0 40 0 0 40 0
40 160 0 160 0 0 40 0 40 40 0 40 0 0 -40 0 -40 40 0 40 0 0 40 0 40 40 0 40
0 0 80 0 80 120 0 120 0 0 40 0 40 80 0 80 0 0 40 0 40 320 0 320 0 0 -40z
m20400 -200 c0 -153 -1 -160 -20 -160 -17 0 -20 7 -20 40 0 29 4 40 15 40 12
0 15 16 15 80 0 64 -3 80 -15 80 -11 0 -15 11 -15 40 0 33 3 40 20 40 19 0 20
-7 20 -160z m-12320 100 c0 -19 -6 -20 -122 -18 -100 2 -107 3 -40 5 64 3 82
7 82 18 0 11 12 15 40 15 33 0 40 -3 40 -20z m12327 -402 c-2 -13 -4 -3 -4 22
0 25 2 35 4 23 2 -13 2 -33 0 -45z m-16227 -58 c0 -22 -4 -40 -10 -40 -5 0
-10 18 -10 40 0 22 5 40 10 40 6 0 10 -18 10 -40z m9020 -160 l0 -40 80 0 80
0 0 -40 0 -40 120 0 120 0 0 -40 0 -40 80 0 80 0 0 -80 0 -80 40 0 40 0 0
-200 0 -200 -40 0 -40 0 0 -80 0 -80 -40 0 -40 0 0 -40 0 -40 -80 0 -80 0 0
-40 0 -40 -120 0 -120 0 0 -40 0 -40 -80 0 c-64 0 -80 -3 -80 -15 0 -11 -11
-15 -40 -15 l-40 0 0 55 0 55 -80 0 -80 0 0 40 0 40 -40 0 -40 0 0 240 0 240
40 0 40 0 0 240 0 240 40 0 40 0 0 40 0 40 120 0 120 0 0 -40z m-11760 -560
l0 -40 80 0 80 0 0 -80 0 -80 40 0 40 0 0 -40 0 -40 40 0 40 0 0 -40 0 -40
-40 0 -40 0 0 -40 0 -40 40 0 40 0 0 -80 0 -80 -40 0 -40 0 0 40 0 40 -40 0
-40 0 0 -40 0 -40 -200 0 -200 0 0 40 0 40 80 0 80 0 0 80 0 80 -40 0 -40 0 0
40 0 40 40 0 40 0 0 40 0 40 -120 0 -120 0 0 120 0 120 160 0 160 0 0 -40z
m3517 -102 c-2 -13 -4 -3 -4 22 0 25 2 35 4 23 2 -13 2 -33 0 -45z m5746 -905
c-13 -2 -33 -2 -45 0 -13 2 -3 4 22 4 25 0 35 -2 23 -4z m-6383 -353 l0 -40
-40 0 -40 0 0 40 0 40 40 0 40 0 0 -40z m5682 -277 l-3 -83 40 0 41 0 1 43 c1
23 3 34 6 23 3 -10 2 -38 -2 -62 -6 -43 -7 -44 -46 -44 -32 0 -39 -3 -39 -20
0 -18 -7 -20 -55 -20 l-55 0 0 -40 c0 -39 1 -40 35 -40 l35 0 0 -80 c0 -63 -3
-80 -14 -80 -10 0 -16 -14 -19 -42 -2 -24 -4 -6 -5 40 l-2 82 -40 0 -40 0 0
-80 0 -80 -80 0 -80 0 0 -40 0 -40 -40 0 c-40 0 -40 0 -40 -38 0 -31 -7 -45
-40 -77 -22 -21 -40 -45 -40 -52 0 -8 -14 -13 -40 -13 -45 0 -55 17 -12 22
l27 3 -27 26 c-24 22 -28 35 -28 78 l0 51 -40 0 -40 0 0 -40 c0 -33 -3 -40
-20 -40 -11 0 -20 -7 -20 -15 0 -8 -9 -19 -20 -25 -11 -6 -20 -17 -20 -25 0
-8 -5 -15 -11 -15 -7 0 -23 -12 -38 -27 l-26 -28 -3 28 c-2 19 -9 27 -23 27
-16 0 -19 7 -19 40 0 33 -3 40 -20 40 -18 0 -20 7 -20 80 l0 80 -40 0 -40 0 0
80 0 80 80 0 80 0 0 40 0 40 40 0 40 0 0 120 0 120 120 0 120 0 0 40 0 40 163
3 c89 1 198 3 242 2 l80 0 -3 -82z m-5502 -209 c0 -19 -4 -34 -10 -34 -5 0
-10 18 -10 41 0 24 4 38 10 34 6 -3 10 -22 10 -41z m5703 39 c-40 -4 -42 -6
-46 -41 l-4 -37 -1 43 -2 42 48 -2 47 -1 -42 -4z m-39 -149 c22 -8 23 -84 1
-84 -11 0 -15 11 -15 39 0 39 -1 40 -37 44 l-38 4 37 1 c20 1 43 -1 52 -4z
m-244 -254 c0 -5 -18 -10 -40 -10 -22 0 -40 5 -40 10 0 6 18 10 40 10 22 0 40
-4 40 -10z m-4681 -242 c26 -42 13 -54 -34 -31 -52 24 -60 48 -14 40 19 -3 28
-3 22 0 -15 5 -17 23 -4 23 5 0 18 -15 30 -32z m41 -173 c0 -48 -2 -55 -20
-55 -19 0 -20 -7 -20 -120 0 -98 -3 -120 -14 -120 -10 0 -16 -14 -19 -42 -2
-24 -4 30 -5 120 -2 138 0 162 13 162 11 0 15 11 15 40 0 28 4 40 14 40 8 0
16 7 20 15 10 28 16 15 16 -40z m240 40 c0 -8 -7 -15 -16 -15 -14 0 -14 3 -4
15 7 8 14 15 16 15 2 0 4 -7 4 -15z m121 -495 c21 0 39 -4 39 -10 0 -5 -18
-10 -40 -10 l-40 0 0 -55 0 -55 -44 0 c-47 0 -76 7 -76 19 0 11 48 31 74 31
22 0 24 5 32 83 7 65 9 73 12 40 3 -43 3 -43 43 -43z m366 -62 c-2 -13 -4 -3
-4 22 0 25 2 35 4 23 2 -13 2 -33 0 -45z m8082 -14 c28 -6 31 -10 31 -45 0
-22 5 -39 10 -39 6 0 10 -18 10 -40 0 -22 5 -40 10 -40 6 0 10 -19 10 -43 0
-37 6 -48 40 -82 22 -21 40 -33 40 -26 0 15 54 71 69 71 6 0 11 9 11 20 0 17
7 20 40 20 33 0 40 3 40 20 0 17 7 20 40 20 33 0 40 -3 40 -20 0 -17 7 -20 40
-20 l40 0 0 -100 c0 -93 -1 -100 -20 -100 -17 0 -20 -7 -20 -38 0 -26 -7 -45
-20 -57 -18 -16 -20 -16 -20 -2 0 13 -9 17 -40 17 -22 0 -40 -4 -40 -10 0 -5
-18 -10 -40 -10 -22 0 -40 5 -40 10 0 6 18 10 40 10 22 0 40 5 40 10 0 6 -33
10 -80 10 -47 0 -80 4 -80 10 0 6 -18 10 -40 10 l-40 0 0 -60 c0 -43 -4 -60
-13 -60 -13 0 -37 -53 -37 -83 0 -9 -8 -32 -17 -51 -16 -31 -23 -36 -55 -36
-22 0 -38 -5 -38 -11 0 -19 -145 -3 -170 18 -11 10 -20 22 -20 28 0 7 -11 22
-25 35 -14 13 -25 29 -25 35 0 17 -54 65 -73 65 -19 0 -57 -76 -57 -114 0 -13
-11 -36 -25 -52 -14 -16 -28 -39 -31 -51 -4 -13 -9 -23 -13 -23 -4 0 -12 -10
-18 -23 -7 -16 -28 -28 -70 -40 -52 -16 -73 -17 -160 -8 -99 10 -102 11 -143
51 -62 59 -100 51 -100 -22 0 -21 -4 -38 -10 -38 -5 0 -13 -12 -16 -27 -9 -33
-31 -52 -61 -53 -13 0 -23 -4 -23 -9 0 -4 -27 -11 -61 -14 -33 -4 -88 -18
-123 -32 -59 -24 -73 -25 -259 -25 -112 0 -197 4 -197 9 0 5 -18 12 -40 16
-34 6 -40 11 -40 31 0 36 -35 67 -60 54 -11 -6 -20 -16 -20 -23 0 -11 -20 -26
-92 -70 -15 -10 -37 -17 -48 -17 -12 0 -31 -5 -42 -11 -43 -23 -157 -40 -299
-46 -169 -7 -210 -1 -244 32 -26 27 -75 34 -75 12 0 -25 -73 -39 -255 -52
l-180 -12 -42 29 c-24 16 -43 33 -43 38 0 6 -8 10 -19 10 -11 0 -21 9 -24 21
-5 19 -11 21 -49 16 -23 -3 -47 -13 -54 -21 -6 -9 -21 -16 -32 -16 -11 0 -24
-4 -27 -10 -3 -5 -40 -10 -81 -10 -43 0 -74 4 -74 10 0 6 -9 10 -19 10 -21 0
-61 59 -61 90 0 22 -45 70 -65 70 -8 0 -15 5 -15 10 0 6 -18 10 -40 10 -29 0
-40 -4 -40 -15 0 -13 -14 -15 -82 -13 l-83 3 -28 58 c-15 31 -32 57 -37 57 -6
0 -10 7 -10 15 0 8 -4 15 -10 15 -5 0 -10 23 -10 50 0 43 -3 50 -19 50 -18 0
-20 9 -23 86 -3 85 -3 85 30 116 17 18 32 27 32 21 0 -6 16 -17 36 -23 19 -7
38 -18 41 -26 3 -8 14 -14 24 -14 20 0 59 -33 59 -50 0 -5 4 -10 9 -10 4 0 19
-10 32 -23 20 -19 32 -23 72 -19 45 4 68 22 28 22 -16 0 -20 11 -26 80 -5 58
-11 80 -21 80 -22 0 -17 16 17 49 28 29 36 31 100 31 71 0 71 0 133 -56 15
-13 33 -24 41 -24 8 0 15 -7 15 -15 0 -8 9 -19 20 -25 11 -6 23 -22 26 -35 3
-13 21 -33 40 -44 19 -11 34 -25 34 -31 0 -5 13 -10 28 -10 31 0 42 16 62 89
6 23 15 41 20 41 6 0 10 8 10 17 0 29 34 92 50 93 8 0 37 11 64 25 40 20 64
25 128 25 63 0 78 -3 78 -15 0 -11 11 -15 40 -15 32 0 40 -4 40 -18 0 -23 51
-42 113 -42 43 0 47 2 47 24 0 28 28 84 50 103 37 31 111 43 303 53 186 9 199
8 242 -11 25 -11 45 -26 45 -34 0 -8 9 -15 20 -15 11 0 29 -9 40 -20 11 -11
20 -29 20 -40 0 -11 5 -20 10 -20 6 0 22 -12 36 -27 17 -19 27 -24 31 -15 2 6
22 12 44 12 35 0 39 2 39 26 0 26 48 84 69 84 6 0 11 4 11 9 0 12 59 71 71 71
5 0 9 5 9 11 0 6 14 24 31 41 23 24 42 32 80 36 33 3 49 9 49 18 0 11 25 14
120 14 100 0 120 -2 120 -15 0 -11 12 -15 43 -16 23 -1 34 -3 25 -6 -22 -5
-23 -22 -3 -29 8 -4 15 -17 15 -30 0 -17 6 -24 20 -24 11 0 29 -9 40 -20 11
-11 20 -29 20 -40 0 -16 7 -20 30 -20 28 0 30 -2 30 -40 0 -22 5 -40 10 -40 6
0 10 -7 10 -16 0 -9 6 -14 13 -11 8 2 11 20 9 55 l-4 52 31 0 c24 0 31 4 31
20 0 11 9 29 20 40 11 11 29 20 40 20 13 0 20 7 20 20 0 11 9 29 20 40 11 11
29 20 40 20 15 0 20 7 20 24 0 24 2 25 88 28 l87 4 73 -70 c64 -63 72 -74 72
-108 0 -22 5 -38 11 -38 7 0 22 -11 35 -25 13 -14 28 -25 34 -25 6 0 21 11 34
25 13 14 28 25 35 25 6 0 11 17 11 40 0 29 4 40 15 40 16 0 64 48 65 64 0 5
18 27 40 48 22 22 40 44 40 49 0 10 121 12 169 3z m2711 -364 c0 -22 -4 -40
-10 -40 -5 0 -10 18 -10 40 0 22 5 40 10 40 6 0 10 -18 10 -40z m-10897 -117
c-13 -2 -33 -2 -45 0 -13 2 -3 4 22 4 25 0 35 -2 23 -4z m10897 -19 c0 -14 -3
-14 -15 -4 -8 7 -15 14 -15 16 0 2 7 4 15 4 8 0 15 -7 15 -16z m-10737 -141
c-13 -2 -33 -2 -45 0 -13 2 -3 4 22 4 25 0 35 -2 23 -4z m417 -333 c0 -5 -18
-10 -40 -10 -22 0 -40 5 -40 10 0 6 18 10 40 10 22 0 40 -4 40 -10z m6880 -40
c0 -5 -18 -10 -40 -10 -22 0 -40 5 -40 10 0 6 18 10 40 10 22 0 40 -4 40 -10z
m259 -26 l61 -7 0 -38 c0 -39 0 -39 40 -39 l40 0 0 40 0 40 40 0 40 0 0 -80 0
-80 -40 0 -40 0 0 -40 0 -40 -40 0 -40 0 0 -40 c0 -36 -2 -40 -25 -40 -22 0
-25 -4 -25 -40 l0 -40 -55 0 -55 0 0 -40 0 -40 -87 0 c-83 0 -88 -1 -109 -27
-19 -23 -27 -26 -73 -24 -40 2 -51 -1 -51 -14 0 -11 -11 -15 -40 -15 -36 0
-40 -2 -40 -25 0 -22 -4 -25 -40 -25 -29 0 -40 -4 -40 -15 0 -11 -11 -15 -40
-15 -29 0 -40 -4 -40 -15 0 -11 -11 -15 -40 -15 -22 0 -40 -4 -40 -10 0 -5
-18 -10 -40 -10 -29 0 -40 -4 -40 -15 0 -13 -33 -15 -240 -15 l-240 0 0 -40 0
-40 -40 0 c-29 0 -40 4 -40 15 0 11 -11 15 -40 15 -38 0 -40 -2 -40 -30 0 -28
-2 -30 -40 -30 -29 0 -40 4 -40 15 0 13 -38 15 -280 15 -242 0 -280 2 -280 15
0 11 -11 15 -40 15 -29 0 -40 -4 -40 -15 0 -12 -16 -15 -80 -15 l-80 0 0 40 0
40 -40 0 c-29 0 -40 4 -40 15 0 11 -11 15 -40 15 -29 0 -40 -4 -40 -15 0 -11
-11 -15 -40 -15 -29 0 -40 4 -40 15 0 11 -11 15 -40 15 -36 0 -40 3 -40 25 0
25 -1 25 -80 25 -79 0 -80 0 -80 25 0 23 -4 25 -40 25 -29 0 -40 4 -40 15 0
12 -16 15 -80 15 l-80 0 0 40 0 40 -80 0 c-64 0 -80 3 -80 15 0 11 -11 15 -40
15 l-40 0 0 -55 0 -55 -40 0 -40 0 0 40 0 40 -40 0 -40 0 0 40 0 40 -40 0 -40
0 0 40 0 40 -80 0 -80 0 0 80 c0 79 0 80 25 80 23 0 25 4 25 40 l0 40 40 0
c40 0 40 0 40 -39 0 -22 -5 -41 -12 -43 -17 -6 0 -28 23 -28 10 0 19 7 19 15
0 12 16 15 80 15 73 0 80 -2 80 -20 0 -17 7 -20 40 -20 33 0 40 -3 40 -20 0
-18 7 -20 80 -20 64 0 80 -3 80 -15 0 -11 11 -15 40 -15 29 0 40 4 40 15 0 11
11 15 40 15 l40 0 0 40 0 40 -40 0 c-32 0 -40 4 -40 19 0 15 10 19 53 24 61 6
95 -7 76 -29 -9 -11 -7 -14 10 -14 11 0 21 5 21 10 0 6 18 10 40 10 22 0 40
-4 40 -10 0 -6 33 -10 80 -10 44 0 80 4 80 9 0 15 90 18 102 4 8 -10 6 -13 -6
-13 -9 0 -16 -7 -16 -15 0 -12 16 -15 80 -15 47 0 80 -4 80 -10 0 -5 18 -10
40 -10 29 0 40 -4 40 -15 0 -13 33 -15 240 -15 207 0 240 -2 240 -15 0 -11 11
-15 40 -15 29 0 40 4 40 15 0 11 11 15 40 15 37 0 40 2 40 28 l0 28 -71 -1
c-38 -1 -72 2 -74 5 -2 3 29 6 68 5 l72 0 3 46 c4 57 10 59 123 52 l81 -6 -7
-78 -7 -79 26 0 c16 0 26 -6 26 -15 0 -12 16 -15 80 -15 64 0 80 3 80 15 0 11
11 15 40 15 l40 0 0 40 0 40 80 0 c64 0 80 -3 80 -15 0 -11 11 -15 40 -15 29
0 40 4 40 15 0 11 11 15 40 15 32 0 40 4 40 19 0 15 11 19 61 25 34 3 106 6
160 6 81 0 99 3 99 15 0 13 38 15 280 15 l280 0 0 39 c0 40 0 40 -42 44 -24 2
-34 4 -22 5 12 1 49 -1 83 -4z m-5979 -44 c0 -22 -4 -40 -10 -40 -5 0 -10 -18
-10 -40 0 -22 -4 -40 -10 -40 -6 0 -10 33 -10 80 0 73 2 80 20 80 17 0 20 -7
20 -40z m4823 -37 c-13 -2 -33 -2 -45 0 -13 2 -3 4 22 4 25 0 35 -2 23 -4z
m-3023 -103 c0 -17 7 -20 40 -20 l40 0 0 -60 0 -60 80 0 80 0 0 -40 0 -40 40
0 40 0 0 -40 0 -40 40 0 40 0 0 -40 0 -40 40 0 40 0 0 -40 0 -40 40 0 c29 0
40 -4 40 -15 0 -11 11 -15 40 -15 36 0 40 -2 40 -25 0 -25 1 -25 80 -25 79 0
80 0 80 -25 0 -22 4 -25 40 -25 29 0 40 -4 40 -15 0 -11 11 -15 40 -15 l40 0
0 -40 0 -40 40 0 40 0 0 -40 0 -40 80 0 80 0 0 -40 0 -40 120 0 120 0 0 -80 0
-80 -40 0 -40 0 0 40 0 40 -160 0 -160 0 0 -40 0 -40 40 0 40 0 0 -40 0 -40
-80 0 -80 0 0 -40 0 -40 80 0 80 0 0 -120 0 -120 85 0 85 0 0 -80 0 -80 35 0
c34 0 35 -1 35 -40 l0 -40 60 0 60 0 0 -80 c0 -73 -2 -80 -20 -80 -13 0 -20
-7 -20 -19 0 -16 -11 -20 -80 -26 -58 -5 -80 -11 -80 -21 0 -8 -7 -14 -15 -14
-21 0 -65 -48 -65 -70 0 -17 -7 -20 -40 -20 -33 0 -40 -3 -40 -20 0 -18 -7
-20 -80 -20 -64 0 -80 -3 -80 -15 0 -11 -11 -15 -40 -15 l-40 0 0 -40 0 -40
80 0 c64 0 80 -3 80 -15 0 -24 76 -21 83 4 3 15 0 17 -16 13 -20 -5 -20 -5 1
16 11 11 37 25 56 31 35 9 36 9 36 -20 0 -24 4 -29 25 -29 23 0 25 -4 25 -40
0 -38 2 -40 30 -40 28 0 30 2 30 40 0 36 3 40 25 40 20 0 25 5 25 25 0 23 4
25 40 25 29 0 40 4 40 15 0 9 -10 15 -27 16 l-28 1 28 11 c15 6 27 14 27 19 0
4 36 8 80 8 l80 0 0 -60 0 -60 40 0 40 0 0 -40 0 -40 40 0 40 0 0 -55 0 -55
40 0 c29 0 40 4 40 15 0 9 9 15 25 15 23 0 25 -4 25 -40 0 -29 4 -40 15 -40 8
0 15 9 15 19 0 16 11 20 80 26 58 5 80 11 80 21 0 8 7 14 15 14 12 0 15 -15
15 -79 0 -44 -4 -81 -9 -83 -5 -2 -12 -38 -16 -80 l-7 -78 81 0 81 0 0 40 0
40 -42 2 -43 1 43 4 c28 3 42 9 42 19 0 10 12 14 40 14 33 0 40 3 40 20 0 17
7 20 40 20 33 0 40 3 40 20 0 18 7 20 80 20 73 0 80 -2 80 -20 0 -13 -7 -20
-20 -20 -17 0 -20 -7 -20 -40 0 -33 3 -40 20 -40 17 0 20 -7 20 -40 l0 -40
160 0 c133 0 160 -2 160 -15 0 -17 46 -65 62 -65 6 0 29 -18 50 -40 25 -25 49
-40 64 -40 21 0 24 4 24 40 0 33 -3 40 -20 40 -17 0 -20 7 -20 40 0 22 -4 40
-10 40 -5 0 -10 18 -10 40 0 22 5 40 10 40 6 0 10 18 10 40 l0 40 80 0 80 0 0
-40 0 -40 -40 0 -40 0 0 -40 0 -40 120 0 120 0 0 -95 0 -95 80 0 c64 0 80 3
80 15 0 8 -9 15 -20 15 -17 0 -20 7 -20 39 0 35 3 39 31 45 17 3 44 6 60 6
l29 0 0 75 0 75 120 0 120 0 0 -40 0 -40 80 0 80 0 0 -40 0 -40 40 0 40 0 0
40 c0 36 -2 40 -25 40 -22 0 -25 4 -25 40 0 29 -4 40 -15 40 -11 0 -15 11 -15
40 l0 40 40 0 40 0 0 40 0 40 120 0 120 0 0 40 0 40 40 0 40 0 0 40 0 40 80 0
80 0 0 40 0 40 80 0 80 0 0 40 0 40 160 0 160 0 0 40 0 40 40 0 40 0 0 40 0
40 40 0 40 0 0 40 0 40 40 0 40 0 0 40 0 40 40 0 40 0 0 40 0 40 40 0 40 0 0
40 0 40 40 0 40 0 0 40 0 40 80 0 80 0 0 -40 0 -40 40 0 c29 0 40 -4 40 -15 0
-11 11 -15 40 -15 29 0 40 4 40 15 0 11 -11 15 -40 15 l-40 0 0 100 0 100 80
0 c73 0 80 -2 80 -20 0 -19 7 -20 120 -20 l120 0 0 -40 0 -40 80 0 80 0 0 -40
0 -40 -80 0 -80 0 0 -80 0 -80 -80 0 -80 0 0 -40 0 -40 -40 0 -40 0 0 -80 0
-80 -40 0 -40 0 0 -80 0 -80 -40 0 -40 0 0 -40 c0 -33 -3 -40 -20 -40 -18 0
-20 -7 -20 -80 0 -47 -4 -80 -10 -80 -5 0 -10 -18 -10 -40 0 -22 -4 -40 -10
-40 -5 0 -10 18 -10 40 l0 40 -40 0 -40 0 0 -40 c0 -33 -3 -40 -20 -40 -17 0
-20 -7 -20 -40 l0 -40 -40 0 -40 0 0 -40 c0 -30 -4 -40 -16 -40 -14 0 -15 -10
-9 -80 5 -56 4 -80 -4 -80 -6 0 -11 17 -11 40 l0 40 -40 0 c-33 0 -40 -3 -40
-20 0 -17 -7 -20 -40 -20 -33 0 -40 3 -40 20 0 17 -7 20 -40 20 l-40 0 0 -40
0 -40 -80 0 -80 0 0 40 c0 29 -4 40 -15 40 -11 0 -15 -11 -15 -40 0 -29 4 -40
15 -40 12 0 15 -15 16 -72 0 -40 4 -98 8 -128 8 -51 4 -81 -6 -52 -4 9 -50 12
-184 12 l-179 0 0 -40 0 -40 -56 0 c-53 0 -59 2 -100 44 -36 35 -44 50 -44 80
0 32 -3 36 -25 36 -22 0 -25 4 -25 40 0 36 3 40 25 40 23 0 25 4 25 40 l0 40
-60 0 -60 0 0 80 c0 73 -2 80 -20 80 -17 0 -20 -7 -20 -40 0 -29 -4 -40 -15
-40 -11 0 -15 -11 -15 -40 l0 -40 -65 0 -65 0 0 -40 0 -40 60 0 60 0 0 -40 c0
-33 -3 -40 -20 -40 -13 0 -20 -7 -20 -20 0 -17 -7 -20 -40 -20 -33 0 -40 -3
-40 -20 0 -17 -7 -20 -40 -20 l-40 0 0 -80 c0 -73 2 -80 20 -80 17 0 20 -7 20
-38 0 -26 -7 -45 -20 -57 -18 -16 -20 -16 -20 -2 0 13 -9 17 -40 17 l-40 0 0
40 0 40 -80 0 -80 0 0 -40 c0 -23 -5 -40 -11 -40 -12 0 -11 21 7 183 l7 57
-82 0 -81 0 0 -40 0 -40 -40 0 c-29 0 -40 4 -40 15 0 11 -11 15 -40 15 -29 0
-40 -4 -40 -15 0 -11 11 -15 40 -15 l40 0 0 -40 0 -40 57 0 57 0 -22 -20 c-13
-12 -35 -20 -57 -20 -28 0 -35 4 -35 20 0 17 -7 20 -40 20 l-40 0 0 -54 c0
-49 -2 -55 -22 -58 -15 -2 -24 -11 -26 -25 -2 -13 -10 -23 -18 -23 -10 0 -14
-12 -14 -40 l0 -40 -40 0 -40 0 0 80 0 80 -40 0 -40 0 0 -40 0 -40 -80 0 -80
0 0 -40 0 -40 -40 0 -40 0 0 -40 c0 -22 4 -40 9 -40 15 0 18 -90 4 -102 -10
-8 -13 -2 -13 26 0 35 -1 36 -40 36 -33 0 -40 3 -40 20 0 13 7 20 20 20 17 0
20 7 20 40 l0 40 -55 0 -55 0 0 -40 0 -40 -45 0 -45 0 0 -40 c0 -33 -3 -40
-20 -40 -18 0 -20 7 -20 80 0 73 2 80 20 80 17 0 20 7 20 40 0 33 -3 40 -20
40 -17 0 -20 7 -20 40 l0 40 -140 0 -140 0 0 -40 0 -40 -40 0 c-33 0 -40 -3
-40 -20 0 -17 -7 -20 -40 -20 l-40 0 0 60 0 60 -40 0 -40 0 0 -80 0 -80 -40 0
-40 0 0 -40 0 -40 -40 0 c-40 0 -40 0 -40 39 0 22 -5 41 -12 43 -9 3 -9 12 1
36 17 41 10 48 -31 31 -24 -10 -33 -10 -36 -1 -2 7 -9 12 -16 12 -17 0 -28
-101 -19 -180 6 -60 6 -60 -21 -60 -22 0 -26 -4 -26 -30 0 -37 -12 -38 -42 -2
-20 24 -29 27 -73 26 -27 -2 -40 0 -27 2 18 5 22 12 22 45 0 32 3 39 20 39 17
0 20 7 20 40 l0 40 -40 0 c-33 0 -40 -3 -40 -20 0 -17 -7 -20 -40 -20 l-40 0
0 60 c0 49 -3 60 -16 60 -14 0 -16 -9 -12 -50 5 -47 3 -53 -26 -77 -19 -16
-26 -28 -18 -30 14 -5 17 -83 2 -83 -5 0 -10 9 -10 20 0 17 -7 20 -40 20 -33
0 -40 3 -40 20 0 11 -4 20 -10 20 -5 0 -10 18 -10 40 0 36 3 40 25 40 23 0 25
4 25 40 0 29 -4 40 -15 40 -8 0 -15 7 -15 15 0 8 -5 15 -10 15 -6 0 -13 -7
-16 -15 -4 -8 -15 -15 -26 -15 -19 0 -20 -4 -13 -80 l7 -80 -91 0 -91 0 0 40
c0 33 -3 40 -20 40 -17 0 -20 7 -20 40 0 33 3 40 20 40 18 0 20 7 20 80 l0 80
-40 0 -40 0 0 -40 0 -40 -80 0 c-75 0 -80 -1 -80 -21 0 -20 -4 -21 -50 -17
-45 5 -53 2 -69 -18 -11 -13 -24 -24 -30 -24 -6 0 -11 -9 -11 -20 0 -18 -7
-20 -80 -20 -73 0 -80 2 -80 20 0 18 -7 20 -80 20 -68 0 -80 -3 -80 -17 0 -15
-1 -15 -18 0 -10 10 -28 17 -40 17 -19 0 -22 5 -22 46 0 38 -5 49 -29 69 -26
22 -28 29 -23 75 l5 50 -97 0 c-65 0 -96 4 -96 11 0 7 -12 23 -27 38 l-28 26
28 3 c27 3 27 4 27 83 l0 79 -80 0 -80 0 0 40 c0 39 -1 40 -32 39 -18 0 -54
-4 -80 -8 -27 -4 -48 -4 -48 1 0 4 18 8 40 8 l40 0 0 40 0 40 -40 0 c-22 0
-40 -4 -40 -10 0 -5 -18 -10 -40 -10 -22 0 -40 5 -40 10 0 6 18 10 40 10 l40
0 0 40 c0 33 -3 40 -20 40 -17 0 -20 7 -20 40 0 33 3 40 20 40 17 0 20 7 20
40 l0 40 -80 0 -80 0 0 80 0 80 -80 0 -80 0 0 80 0 80 -65 0 -65 0 0 40 c0 29
-4 40 -15 40 -11 0 -15 11 -15 40 l0 40 40 0 40 0 0 40 0 40 -80 0 -80 0 0 40
0 40 -40 0 -40 0 0 40 0 40 40 0 40 0 0 80 0 80 40 0 40 0 0 80 0 80 40 0 40
0 0 40 0 40 40 0 40 0 0 80 0 80 40 0 40 0 0 40 0 40 80 0 80 0 0 40 0 40 -40
0 -40 0 0 40 0 40 40 0 40 0 0 40 0 40 -80 0 -80 0 0 320 0 320 40 0 40 0 0
120 0 120 120 0 c113 0 120 -1 120 -20z m-3443 -122 c-2 -13 -4 -3 -4 22 0 25
2 35 4 23 2 -13 2 -33 0 -45z m1603 22 l0 -40 -40 0 -40 0 0 40 0 40 40 0 40
0 0 -40z m1437 -102 c-2 -13 -4 -3 -4 22 0 25 2 35 4 23 2 -13 2 -33 0 -45z
m-1089 10 c18 -18 15 -28 -8 -28 -13 0 -20 7 -20 20 0 23 10 26 28 8z m-1768
-19 c0 -5 -4 -9 -10 -9 -5 0 -10 7 -10 16 0 8 5 12 10 9 6 -3 10 -10 10 -16z
m-73 -202 c-6 -20 -27 -19 -27 2 0 14 5 19 15 14 9 -3 14 -10 12 -16z m-81
-28 c22 -44 11 -179 -16 -179 -22 0 -30 37 -30 130 0 62 3 71 27 79 1 1 10
-13 19 -30z m7981 -161 c-2 -13 -4 -3 -4 22 0 25 2 35 4 23 2 -13 2 -33 0 -45z
m1861 -70 c18 -18 15 -28 -8 -28 -17 0 -20 -7 -20 -39 0 -39 1 -40 38 -44 20
-2 13 -3 -15 -1 l-53 3 0 -40 c0 -28 4 -39 15 -39 12 0 15 -16 15 -80 0 -71 2
-80 19 -80 15 0 19 -10 24 -60 4 -33 4 -87 0 -120 -5 -50 -9 -60 -24 -60 -15
0 -19 -8 -19 -40 l0 -40 -120 0 c-113 0 -120 1 -120 20 0 17 -7 20 -40 20 -33
0 -40 3 -40 20 0 17 -7 20 -40 20 -33 0 -40 3 -40 20 0 17 -7 20 -40 20 -36 0
-40 -2 -40 -25 0 -22 -4 -25 -40 -25 l-40 0 0 85 0 85 40 0 40 0 0 40 0 40 40
0 40 0 0 40 0 40 80 0 80 0 0 40 c0 33 -3 40 -20 40 -17 0 -20 7 -20 40 0 33
3 40 20 40 17 0 20 7 20 40 l0 40 120 0 c113 0 120 1 120 20 0 23 10 26 28 8z
m-7848 -108 c0 -47 -4 -80 -10 -80 -6 0 -10 33 -10 80 0 47 4 80 10 80 6 0 10
-33 10 -80z m-1755 -70 c7 0 25 -13 38 -30 14 -16 30 -30 35 -30 5 0 15 -7 22
-15 7 -8 22 -14 34 -13 11 1 36 -5 54 -12 25 -12 32 -21 32 -42 0 -16 6 -28
13 -28 12 -1 67 -45 67 -55 0 -3 -18 -5 -40 -5 -24 0 -40 5 -40 12 0 16 -51
68 -67 68 -7 0 -13 9 -13 20 0 17 -7 20 -40 20 -38 0 -40 -2 -40 -30 0 -16 -4
-30 -10 -30 -5 0 -10 18 -10 40 0 24 -5 40 -12 40 -16 0 -68 51 -68 66 0 7 -5
14 -11 16 -8 3 -5 10 6 22 16 16 19 16 27 2 5 -9 15 -16 23 -16z m4775 -75 c0
-11 11 -15 40 -15 33 0 40 -3 40 -20 0 -17 -7 -20 -40 -20 -33 0 -40 3 -40 20
0 17 -7 20 -40 20 -29 0 -40 4 -40 15 0 11 11 15 40 15 29 0 40 -4 40 -15z
m-4584 -225 c13 0 24 -4 24 -9 0 -5 9 -13 20 -16 16 -5 20 -15 20 -46 0 -32
-3 -39 -20 -39 -16 0 -20 7 -20 30 0 28 -2 30 -40 30 -32 0 -40 4 -40 19 0 10
-3 34 -6 52 l-7 34 22 -27 c13 -17 32 -28 47 -28z m2191 -92 c-2 -13 -4 -3 -4
22 0 25 2 35 4 23 2 -13 2 -33 0 -45z m-2057 -22 c0 -2 -7 -9 -15 -16 -12 -10
-15 -10 -15 4 0 9 7 16 15 16 8 0 15 -2 15 -4z m2210 -61 c0 -8 -7 -15 -16
-15 -14 0 -14 3 -4 15 7 8 14 15 16 15 2 0 4 -7 4 -15z m6678 -2 c2 -8 -5 -13
-17 -13 -12 0 -21 6 -21 16 0 18 31 15 38 -3z m-8758 -238 c0 -8 -9 -15 -20
-15 -20 0 -26 11 -13 23 12 13 33 7 33 -8z m-28 -45 c23 -23 39 -30 69 -30 37
0 39 -2 39 -30 0 -28 2 -30 40 -30 39 0 40 1 40 35 0 39 1 39 50 20 28 -11 30
-14 13 -14 -20 -1 -23 -6 -23 -45 0 -34 -5 -47 -22 -59 -23 -14 -23 -15 20
-27 38 -12 58 -30 32 -30 -6 0 -8 -10 -5 -23 8 -29 -16 -51 -45 -42 -20 6 -25
-2 -21 -32 1 -8 -10 -13 -26 -13 -61 0 -106 -13 -111 -32 -6 -24 -22 -23 -22
2 0 11 5 20 10 20 6 0 10 9 10 20 0 13 -7 20 -20 20 -17 0 -20 -7 -20 -40 0
-22 -4 -40 -10 -40 -17 0 -11 -50 7 -57 9 -4 19 -1 21 5 4 14 79 16 84 2 2 -5
27 -15 56 -22 51 -12 52 -13 52 -49 0 -44 -12 -49 -112 -49 -88 0 -98 5 -98
47 0 37 -18 63 -44 63 -9 0 -16 7 -16 15 0 8 -5 15 -11 15 -5 0 -15 14 -21 30
-5 17 -19 35 -29 41 -16 8 -19 21 -19 74 l0 65 40 0 c22 0 40 5 40 10 0 6 -4
10 -10 10 -5 0 -18 10 -30 22 -21 23 -29 98 -10 98 6 0 10 18 10 40 0 38 2 40
31 40 21 0 40 -10 61 -30z m8995 -112 c-2 -13 -4 -3 -4 22 0 25 2 35 4 23 2
-13 2 -33 0 -45z m-8767 -269 c0 -10 -5 -21 -10 -24 -14 -9 -110 5 -110 15 0
12 82 38 103 32 9 -2 17 -13 17 -23z m3590 -73 c0 -2 -7 -6 -15 -10 -8 -3 -15
-1 -15 4 0 6 7 10 15 10 8 0 15 -2 15 -4z m-3647 -133 c-13 -2 -33 -2 -45 0
-13 2 -3 4 22 4 25 0 35 -2 23 -4z m4560 -20 c-13 -2 -33 -2 -45 0 -13 2 -3 4
22 4 25 0 35 -2 23 -4z m1134 -145 c-2 -13 -4 -3 -4 22 0 25 2 35 4 23 2 -13
2 -33 0 -45z m170 -160 c-2 -13 -4 -3 -4 22 0 25 2 35 4 23 2 -13 2 -33 0 -45z
m-5527 -53 c0 -39 3 -45 21 -45 11 0 17 -4 14 -10 -10 -16 -62 -12 -69 6 -11
27 -6 82 7 87 24 10 27 6 27 -38z m5103 38 c-13 -2 -33 -2 -45 0 -13 2 -3 4
22 4 25 0 35 -2 23 -4z m-5103 -218 c0 -30 -4 -55 -10 -55 -15 0 -30 36 -30
74 0 29 4 36 20 36 18 0 20 -7 20 -55z m-605 -95 c4 -6 -17 -10 -54 -10 -34 0
-61 4 -61 10 0 6 24 10 54 10 30 0 58 -4 61 -10z m925 -194 c0 -13 7 -26 15
-30 24 -9 17 -26 -11 -26 -15 0 -36 -10 -49 -24 -26 -28 -64 -25 -72 6 -3 10
-14 18 -24 18 -11 0 -19 5 -19 10 0 6 18 10 40 10 38 0 40 2 40 30 0 28 2 30
40 30 36 0 40 -3 40 -24z m-217 -76 c3 -14 14 -20 31 -20 19 0 26 -5 26 -20 0
-17 7 -20 40 -20 l40 0 0 -40 0 -40 -60 0 -60 0 0 40 c0 22 -4 40 -10 40 -5 0
-10 9 -10 20 0 11 -4 20 -10 20 -5 0 -10 9 -10 20 0 11 4 20 9 20 5 0 11 -9
14 -20z m327 -207 c0 -29 33 -63 60 -63 11 0 23 -7 26 -15 4 -8 14 -15 24 -15
18 0 23 -17 36 -117 4 -28 2 -43 -5 -43 -6 0 -11 9 -11 20 0 19 -7 20 -100 20
l-100 0 0 60 c0 33 4 60 10 60 17 0 12 90 -5 96 -22 9 -18 23 7 33 30 11 58
-7 58 -36z m3010 -23 c0 -5 -18 -10 -40 -10 -22 0 -40 5 -40 10 0 6 18 10 40
10 22 0 40 -4 40 -10z m1480 -30 c0 -33 -3 -40 -20 -40 -17 0 -20 -7 -20 -40
l0 -40 -60 0 -60 0 0 40 0 40 60 0 60 0 0 40 c0 33 3 40 20 40 17 0 20 -7 20
-40z m-1720 -80 c0 -22 -4 -40 -10 -40 -5 0 -10 18 -10 40 0 22 5 40 10 40 6
0 10 -18 10 -40z m350 -124 c0 -2 -7 -9 -15 -16 -12 -10 -15 -10 -15 4 0 9 7
16 15 16 8 0 15 -2 15 -4z m690 -86 c0 -5 -18 -10 -40 -10 -38 0 -40 -2 -40
-30 0 -16 -4 -30 -10 -30 -5 0 -10 18 -10 40 l0 40 50 0 c28 0 50 -4 50 -10z
m-4960 -3255 c0 -8 -7 -15 -16 -15 -14 0 -14 3 -4 15 7 8 14 15 16 15 2 0 4
-7 4 -15z m960 -55 l0 -40 240 0 240 0 0 -40 0 -40 40 0 40 0 0 -80 0 -80 80
0 80 0 0 -80 0 -80 40 0 40 0 0 -80 0 -80 40 0 40 0 0 -80 0 -80 40 0 40 0 0
-80 0 -80 40 0 40 0 0 -80 0 -80 40 0 40 0 0 -40 0 -40 40 0 40 0 0 -40 0 -40
80 0 80 0 0 -40 0 -40 40 0 40 0 0 -40 0 -40 40 0 40 0 0 -80 0 -80 40 0 40 0
0 -80 0 -80 40 0 40 0 0 -80 0 -80 40 0 40 0 0 -40 0 -40 40 0 40 0 0 -40 0
-40 40 0 40 0 0 -40 0 -40 40 0 40 0 0 -40 0 -40 40 0 40 0 0 -40 0 -40 40 0
40 0 0 -40 0 -40 80 0 80 0 0 -40 0 -40 80 0 80 0 0 -40 0 -40 40 0 40 0 0
-40 0 -40 40 0 40 0 0 -240 0 -240 40 0 40 0 0 -40 0 -40 -40 0 -40 0 0 -40
c0 -33 3 -40 20 -40 17 0 20 -7 20 -40 0 -33 3 -40 20 -40 13 0 20 -7 20 -20
0 -18 7 -20 80 -20 73 0 80 2 80 20 0 13 7 20 20 20 18 0 20 7 20 80 0 73 2
80 20 80 17 0 20 -7 20 -40 l0 -40 120 0 120 0 0 -40 0 -40 80 0 80 0 0 -40 0
-40 120 0 120 0 0 -40 0 -40 120 0 120 0 0 -40 0 -40 160 0 160 0 0 40 0 40
40 0 40 0 0 40 0 40 -40 0 -40 0 0 80 0 80 40 0 40 0 0 40 0 40 80 0 80 0 0
80 0 80 200 0 200 0 0 40 0 40 -200 0 -200 0 0 40 0 40 400 0 400 0 0 40 0 40
160 0 160 0 0 -40 0 -40 120 0 120 0 0 -40 0 -40 80 0 80 0 0 -40 0 -40 240 0
240 0 0 -40 0 -40 200 0 200 0 0 40 0 40 200 0 200 0 0 40 0 40 360 0 360 0 0
40 0 40 40 0 40 0 0 -40 0 -40 400 0 400 0 0 -40 0 -40 80 0 80 0 0 -40 0 -40
80 0 80 0 0 -40 0 -40 640 0 640 0 0 40 0 40 240 0 240 0 0 40 0 40 120 0 120
0 0 40 0 40 80 0 80 0 0 -80 0 -80 -40 0 -40 0 0 -40 c0 -29 4 -40 15 -40 8 0
15 -4 15 -10 0 -5 -7 -10 -15 -10 -8 0 -15 -4 -15 -10 0 -5 -18 -10 -40 -10
-33 0 -40 3 -40 20 0 17 -7 20 -40 20 l-40 0 0 -54 c0 -30 5 -58 10 -61 24
-15 9 -43 -33 -59 -52 -20 -57 -20 -57 -1 0 11 -11 15 -40 15 -39 0 -40 0 -40
-37 0 -30 -8 -45 -42 -80 -25 -25 -36 -43 -28 -43 13 0 13 -2 0 -10 -20 -13
-90 -13 -90 0 0 6 -18 10 -40 10 l-40 0 0 -40 c0 -22 5 -40 10 -40 6 0 5 -8
-2 -20 -7 -11 -18 -20 -24 -20 -5 0 -20 -9 -32 -20 -12 -11 -28 -20 -37 -20
-24 0 -75 -42 -75 -62 0 -13 -8 -18 -26 -18 -15 0 -34 -8 -43 -18 -9 -11 -33
-22 -53 -26 -23 -4 -38 -13 -38 -21 0 -8 -5 -15 -11 -15 -6 0 -17 -7 -25 -15
-9 -8 -26 -15 -39 -15 -13 0 -32 -11 -43 -25 -14 -17 -30 -25 -51 -25 -21 0
-31 -5 -31 -15 0 -8 -9 -19 -20 -25 -11 -6 -20 -17 -20 -25 0 -10 -10 -15 -29
-15 -16 0 -36 -6 -43 -14 -8 -7 -29 -17 -47 -21 -20 -4 -35 -15 -38 -26 -4
-13 -14 -19 -34 -19 -15 0 -34 -8 -41 -17 -14 -19 -119 -73 -182 -93 -22 -7
-41 -20 -43 -31 -3 -11 -12 -19 -21 -19 -31 0 -133 -44 -143 -62 -5 -10 -21
-18 -34 -18 -14 0 -25 -4 -25 -9 0 -5 -27 -20 -60 -33 -33 -12 -60 -26 -60
-30 0 -5 -8 -8 -19 -8 -10 0 -24 -7 -31 -15 -6 -8 -22 -17 -33 -21 -12 -4 -34
-15 -49 -25 -14 -11 -33 -19 -41 -19 -8 0 -20 -6 -26 -14 -7 -8 -26 -18 -43
-21 -18 -4 -32 -15 -35 -26 -3 -12 -14 -19 -28 -19 -30 0 -95 -28 -95 -40 0
-6 -18 -10 -40 -10 -31 0 -40 -4 -40 -17 0 -13 -22 -26 -80 -48 -44 -16 -80
-33 -80 -37 0 -4 -7 -8 -16 -8 -8 0 -30 -11 -48 -25 -18 -14 -38 -25 -43 -25
-6 0 -16 -7 -23 -15 -7 -8 -23 -15 -36 -15 -12 0 -26 -5 -29 -10 -3 -6 -26
-19 -51 -30 -24 -11 -44 -25 -44 -30 0 -6 -18 -10 -40 -10 -28 0 -40 -4 -40
-14 0 -8 -7 -16 -15 -20 -8 -3 -15 -15 -15 -26 0 -19 -22 -26 -80 -22 -8 0
-18 -5 -22 -12 -4 -7 -28 -19 -54 -26 -25 -7 -48 -19 -51 -27 -3 -7 -11 -13
-19 -13 -8 0 -14 -4 -14 -9 0 -5 -18 -12 -40 -16 -22 -4 -40 -10 -40 -15 0 -4
-18 -10 -40 -14 -22 -3 -40 -11 -40 -16 0 -6 -9 -10 -19 -10 -11 0 -21 -4 -23
-8 -4 -10 -131 -72 -147 -72 -6 0 -28 -9 -48 -20 -21 -11 -45 -20 -55 -20 -9
0 -20 -4 -23 -10 -3 -5 -24 -10 -46 -10 -21 0 -39 -4 -39 -10 0 -5 -5 -10 -11
-10 -6 0 -17 -6 -25 -14 -8 -8 -39 -20 -69 -27 -33 -7 -55 -17 -55 -26 0 -7
-12 -14 -27 -14 -51 -3 -78 -6 -105 -14 -18 -5 -28 -3 -28 4 0 6 -7 11 -15 11
-8 0 -15 -6 -15 -14 0 -25 -30 -39 -80 -37 -38 1 -50 -2 -50 -13 0 -39 -280
-85 -357 -59 -17 6 -79 6 -158 1 -102 -7 -139 -6 -175 5 -33 10 -117 15 -315
16 -158 1 -271 6 -273 12 -2 5 -39 9 -82 9 -43 0 -80 4 -82 10 -1 5 -73 14
-158 20 -85 6 -157 15 -160 19 -3 5 -50 12 -105 15 -171 10 -215 16 -215 32 0
11 -19 14 -89 14 -48 0 -101 4 -117 10 -34 11 -260 29 -456 37 -76 3 -138 9
-138 14 0 9 -15 11 -240 34 -85 9 -177 20 -205 25 -27 5 -99 12 -159 15 -61 3
-112 9 -115 14 -6 9 -79 17 -206 24 -38 2 -86 9 -105 15 -19 6 -65 14 -102 18
-38 3 -68 10 -68 15 0 5 -14 9 -32 9 -18 0 -50 7 -73 15 -22 8 -98 19 -170 24
-163 13 -205 20 -205 36 0 8 -24 15 -72 19 -40 4 -99 14 -131 22 -32 8 -76 14
-97 12 -22 -1 -43 1 -46 5 -4 4 0 7 9 7 9 0 17 5 17 10 0 6 -15 10 -33 10 -33
0 -149 22 -179 35 -10 4 -18 12 -18 19 0 6 -4 5 -9 -3 -7 -11 -15 -11 -41 -2
-18 6 -53 11 -76 11 -24 0 -44 5 -44 10 0 6 -15 10 -33 10 -18 0 -53 6 -78 14
-24 7 -80 21 -124 31 -44 10 -101 28 -128 41 -26 13 -63 26 -82 30 -19 3 -35
10 -35 15 0 5 -18 9 -40 9 -22 0 -40 4 -40 9 0 5 -24 17 -52 27 -29 9 -62 22
-73 28 -20 11 -25 12 -82 15 -22 0 -33 6 -33 16 0 8 -14 17 -36 21 -24 4 -38
13 -41 25 -4 15 -15 19 -44 19 -32 0 -39 3 -39 20 0 12 -7 20 -18 20 -9 0 -34
9 -55 20 -20 11 -50 20 -67 20 -19 0 -33 7 -40 20 -6 11 -22 23 -35 26 -14 3
-25 12 -25 20 0 8 -8 14 -18 14 -9 0 -23 9 -30 20 -7 11 -23 20 -36 20 -12 0
-31 9 -41 20 -10 11 -29 20 -42 20 -13 0 -26 7 -30 15 -3 9 -19 23 -35 31 -17
9 -43 28 -58 42 -59 57 -78 72 -94 72 -9 0 -16 8 -16 18 0 10 -15 23 -40 34
-27 11 -40 23 -40 36 0 13 -12 23 -40 32 -22 7 -40 19 -40 27 0 7 -6 13 -14
13 -7 0 -16 9 -19 20 -3 11 -13 23 -24 27 -25 9 -129 113 -112 113 7 0 -23 37
-69 83 -45 45 -82 86 -82 90 0 12 -57 67 -69 67 -6 0 -11 7 -11 15 0 8 -4 15
-9 15 -5 0 -13 10 -17 23 -6 21 -22 38 -73 80 -12 10 -19 23 -15 29 4 7 -9 25
-32 45 -21 18 -33 33 -26 33 6 0 -6 16 -28 36 -22 20 -40 45 -40 55 0 11 -4
19 -10 19 -5 0 -14 16 -19 36 -5 20 -22 47 -36 60 -14 13 -24 28 -21 32 3 5
-13 26 -34 47 -22 22 -40 45 -40 52 0 7 -4 13 -10 13 -5 0 -12 11 -16 25 -3
14 -12 25 -20 25 -10 0 -14 12 -14 40 0 32 -4 40 -18 40 -13 0 -23 13 -32 40
-7 22 -17 40 -22 40 -4 0 -8 18 -8 40 0 22 -4 40 -10 40 -5 0 -10 7 -10 15 0
8 -4 15 -9 15 -13 0 -31 57 -31 96 0 27 -4 34 -20 34 -12 0 -20 7 -20 18 0 9
-7 26 -15 36 -12 16 -12 22 -3 28 9 5 2 18 -25 46 -20 21 -37 48 -37 60 0 12
-4 22 -10 22 -5 0 -10 7 -10 15 0 8 5 15 10 15 18 0 10 21 -20 52 -28 28 -30
34 -30 109 0 46 -4 79 -10 79 -5 0 -10 -7 -10 -16 0 -8 -4 -12 -10 -9 -5 3
-10 28 -10 56 0 27 -4 49 -10 49 -5 0 -10 18 -10 40 0 22 -4 40 -10 40 -5 0
-10 18 -10 40 0 54 -20 51 -21 -2 -3 -91 -27 142 -35 330 -4 105 -10 192 -13
192 -3 0 -2 108 3 240 7 180 12 240 21 240 9 0 15 27 20 80 4 44 11 80 16 80
5 0 9 18 9 40 0 22 -4 40 -10 40 -5 0 -10 18 -10 40 0 39 1 40 35 40 34 0 35
1 35 40 l0 40 45 0 45 0 0 79 c0 54 -4 81 -12 84 -8 2 -9 8 -4 13 5 5 11 4 13
-3 4 -10 70 -13 284 -13 l279 0 0 40 0 40 120 0 120 0 0 80 0 80 120 0 120 0
0 40 0 40 80 0 80 0 0 -40z m-1040 -25 c0 -8 -7 -15 -16 -15 -14 0 -14 3 -4
15 7 8 14 15 16 15 2 0 4 -7 4 -15z m15300 -299 c0 -25 -4 -48 -10 -51 -6 -4
-10 13 -10 44 0 28 5 51 10 51 6 0 10 -20 10 -44z m-80 -125 c0 -6 -4 -13 -10
-16 -5 -3 -10 1 -10 9 0 9 5 16 10 16 6 0 10 -4 10 -9z m-80 -81 c0 -5 -4 -10
-10 -10 -5 0 -10 5 -10 10 0 6 5 10 10 10 6 0 10 -4 10 -10z m-230 -314 c0 -2
-7 -9 -15 -16 -12 -10 -15 -10 -15 4 0 9 7 16 15 16 8 0 15 -2 15 -4z m-510
-316 l0 -80 -40 0 -40 0 0 80 0 80 40 0 40 0 0 -80z m317 74 c-3 -3 -12 -4
-19 -1 -8 3 -5 6 6 6 11 1 17 -2 13 -5z m-127 -78 c0 -2 -7 -9 -15 -16 -12
-10 -15 -10 -15 4 0 9 7 16 15 16 8 0 15 -2 15 -4z m-379 -410 c-13 -7 -30
-24 -37 -37 -13 -23 -13 -23 -14 14 0 36 1 37 38 37 36 -1 36 -1 13 -14z
m-101 -70 c0 -2 -7 -9 -15 -16 -12 -10 -15 -10 -15 4 0 9 7 16 15 16 8 0 15
-2 15 -4z m-160 -166 c0 -5 -7 -10 -15 -10 -8 0 -15 5 -15 10 0 6 7 10 15 10
8 0 15 -4 15 -10z m-170 -154 c0 -3 -4 -8 -10 -11 -5 -3 -10 -1 -10 4 0 6 5
11 10 11 6 0 10 -2 10 -4z m-140 -84 c0 -10 -22 -32 -32 -32 -4 0 -8 9 -8 20
0 13 7 20 20 20 11 0 20 -4 20 -8z m-203 -238 c-3 -3 -12 -4 -19 -1 -8 3 -5 6
6 6 11 1 17 -2 13 -5z m-224 -166 c-6 -12 -63 -10 -63 2 0 6 11 10 25 10 23 0
25 4 26 43 l2 42 7 -45 c4 -25 6 -48 3 -52z m-73 -43 c0 -14 -4 -25 -10 -25
-5 0 -10 11 -10 25 0 14 5 25 10 25 6 0 10 -11 10 -25z m-150 -109 c0 -2 -7
-9 -15 -16 -12 -10 -15 -10 -15 4 0 9 7 16 15 16 8 0 15 -2 15 -4z m-177 -123
c3 -24 1 -43 -4 -43 -5 0 -9 21 -9 47 0 56 5 54 13 -4z m-213 -202 c0 -5 -7
-12 -16 -15 -22 -9 -24 -8 -24 9 0 8 9 15 20 15 11 0 20 -4 20 -9z m-100 -75
c0 -3 -4 -8 -10 -11 -5 -3 -10 -1 -10 4 0 6 5 11 10 11 6 0 10 -2 10 -4z
m-8580 -86 c0 -5 -18 -10 -40 -10 -22 0 -40 5 -40 10 0 6 18 10 40 10 22 0 40
-4 40 -10z m8480 0 c0 -5 -5 -10 -11 -10 -5 0 -7 5 -4 10 3 6 8 10 11 10 2 0
4 -4 4 -10z m-44 -25 c-25 -19 -36 -19 -36 0 0 10 10 15 28 15 26 -1 26 -1 8
-15z m-196 -135 c0 -5 -9 -10 -19 -10 -11 0 -23 5 -26 10 -4 6 5 10 19 10 14
0 26 -4 26 -10z m-210 -159 c0 -5 -7 -11 -15 -15 -9 -3 -15 0 -15 9 0 8 7 15
15 15 8 0 15 -4 15 -9z m-4171 -2858 c41 -19 43 -21 23 -32 -20 -11 -78 -5
-87 8 -9 15 -260 -11 -275 -28 -5 -6 -27 -17 -120 -60 -19 -9 -41 -20 -49 -26
-32 -22 -171 -170 -171 -182 0 -7 -3 -13 -8 -13 -6 0 -17 -20 -73 -133 -10
-20 -21 -53 -25 -72 -3 -19 -11 -35 -16 -35 -6 0 -8 -29 -3 -80 5 -56 4 -80
-4 -80 -6 0 -11 -9 -11 -20 0 -24 -25 -27 -34 -4 -12 30 -6 249 8 300 12 45
41 109 56 124 3 3 14 21 24 40 11 19 32 45 47 58 16 12 30 31 33 40 3 9 14 22
24 27 52 29 82 51 82 63 0 6 9 12 19 12 10 0 21 7 25 15 3 8 12 15 21 15 8 0
15 5 15 10 0 6 7 10 16 10 9 0 30 6 47 14 18 8 43 17 57 20 14 3 48 12 75 20
73 23 245 16 304 -11z m168 -80 c13 -7 30 -13 38 -13 8 0 15 -4 15 -10 0 -5
-16 -10 -36 -10 -39 0 -83 38 -61 52 6 4 14 4 17 0 3 -4 15 -13 27 -19z m73
-78 c10 -12 10 -15 -4 -15 -9 0 -16 7 -16 15 0 8 2 15 4 15 2 0 9 -7 16 -15z
m60 -31 c0 -14 -3 -14 -15 -4 -8 7 -15 14 -15 16 0 2 7 4 15 4 8 0 15 -7 15
-16z m46 -49 c4 -8 12 -15 20 -15 8 0 14 -10 13 -22 l0 -23 -16 23 c-8 12 -22
22 -29 22 -8 0 -14 7 -14 15 0 8 5 15 10 15 6 0 13 -7 16 -15z m58 -80 c3 -9
0 -15 -9 -15 -8 0 -15 7 -15 15 0 8 4 15 9 15 5 0 11 -7 15 -15z m76 -156 c0
-10 -4 -19 -10 -19 -5 0 -10 12 -10 26 0 14 4 23 10 19 6 -3 10 -15 10 -26z
m24 -95 c17 -43 -5 -287 -29 -334 -8 -16 -15 -39 -15 -52 0 -13 -7 -32 -15
-42 -8 -11 -15 -28 -15 -38 0 -10 -4 -18 -10 -18 -5 0 -10 -6 -10 -14 0 -8 -7
-16 -15 -20 -8 -3 -15 -15 -15 -26 0 -11 -6 -20 -13 -20 -8 0 -20 -11 -27 -25
-8 -14 -34 -42 -59 -62 -25 -20 -51 -42 -56 -49 -6 -6 -27 -19 -48 -27 -20 -9
-37 -20 -37 -25 0 -5 -14 -12 -32 -16 -17 -3 -39 -12 -47 -20 -19 -17 -71 -25
-213 -32 -76 -4 -108 -3 -108 5 0 6 -15 11 -33 11 -37 0 -127 28 -127 39 0 10
-72 36 -90 33 -12 -2 -13 -1 -1 7 11 7 10 11 -7 20 -11 6 -27 11 -35 11 -16 0
-49 44 -41 53 3 3 14 -3 25 -14 10 -10 28 -19 39 -19 13 0 24 -10 30 -25 8
-20 16 -25 45 -25 19 0 35 -4 35 -9 0 -15 108 -34 195 -35 81 0 201 20 211 35
3 5 13 9 23 9 10 0 26 9 36 20 10 11 25 20 33 20 27 0 79 31 89 53 6 13 27 34
46 47 22 15 40 38 48 62 9 29 18 38 35 38 17 0 24 8 29 32 4 18 18 49 31 70
13 21 24 44 24 52 0 17 32 79 43 84 4 2 7 10 7 17 0 7 12 27 26 44 24 29 26
37 23 116 -3 59 -1 85 7 85 7 0 15 -7 18 -16z m-497 -80 c-3 -3 -12 -4 -19 -1
-8 3 -5 6 6 6 11 1 17 -2 13 -5z m-350 -90 c-3 -3 -12 -4 -19 -1 -8 3 -5 6 6
6 11 1 17 -2 13 -5z m-467 -114 c0 -29 4 -40 15 -40 9 0 12 -6 9 -15 -8 -20
-34 0 -34 26 0 10 -4 21 -10 24 -16 10 -12 45 5 45 11 0 15 -11 15 -40z m70
-140 c0 -11 -2 -20 -5 -20 -2 0 -9 9 -15 20 -9 16 -8 20 5 20 8 0 15 -9 15
-20z"/>
<path d="M8578 33623 c12 -2 32 -2 45 0 12 2 2 4 -23 4 -25 0 -35 -2 -22 -4z"/>
<path d="M8498 33603 c12 -2 32 -2 45 0 12 2 2 4 -23 4 -25 0 -35 -2 -22 -4z"/>
<path d="M8320 33550 c0 -5 -18 -10 -40 -10 -22 0 -40 -4 -40 -10 0 -5 18 -10
40 -10 22 0 40 5 40 10 0 6 18 10 40 10 22 0 40 5 40 10 0 6 -18 10 -40 10
-22 0 -40 -4 -40 -10z"/>
<path d="M8018 33433 c12 -2 32 -2 45 0 12 2 2 4 -23 4 -25 0 -35 -2 -22 -4z"/>
<path d="M8702 32978 c-17 -17 -15 -38 3 -38 9 0 15 9 15 25 0 29 -1 30 -18
13z"/>
<path d="M8614 32892 c-12 -10 -25 -28 -28 -40 -4 -12 -13 -22 -19 -22 -24 -1
-58 -39 -55 -61 3 -21 3 -21 31 5 15 14 34 26 42 26 8 0 16 16 20 40 4 25 12
40 21 40 8 0 14 7 14 15 0 18 0 18 -26 -3z"/>
<path d="M8380 32600 c0 -22 5 -40 10 -40 6 0 10 18 10 40 0 22 -4 40 -10 40
-5 0 -10 -18 -10 -40z"/>
<path d="M16480 30845 c0 -11 11 -15 40 -15 29 0 40 4 40 15 0 11 -11 15 -40
15 -29 0 -40 -4 -40 -15z"/>
<path d="M14480 30651 c0 -4 -30 -11 -67 -15 -86 -9 -109 -21 -57 -31 25 -4
40 -3 42 4 2 6 21 11 43 11 21 0 39 5 39 10 0 6 18 10 40 10 22 0 40 5 40 10
0 6 -18 10 -40 10 -22 0 -40 -4 -40 -9z"/>
<path d="M15158 30643 c23 -2 61 -2 85 0 23 2 4 4 -43 4 -47 0 -66 -2 -42 -4z"/>
<path d="M13920 30550 c0 -5 7 -7 15 -4 8 4 15 8 15 10 0 2 -7 4 -15 4 -8 0
-15 -4 -15 -10z"/>
<path d="M18160 30415 c0 -11 11 -15 40 -15 29 0 40 4 40 15 0 11 -11 15 -40
15 -29 0 -40 -4 -40 -15z"/>
<path d="M11720 28080 c0 -78 1 -80 24 -80 14 0 39 15 60 36 42 42 43 44 16
44 -17 0 -20 7 -20 40 l0 40 -40 0 -40 0 0 -80z"/>
<path d="M11520 26080 l0 -80 160 0 160 0 0 80 0 80 -160 0 -160 0 0 -80z"/>
<path d="M12240 19831 c0 -5 -12 -23 -27 -39 -46 -49 -53 -60 -53 -82 0 -11
-7 -23 -15 -26 -10 -4 -15 -20 -15 -45 0 -28 4 -39 15 -39 8 0 15 -4 15 -10 0
-5 16 -10 35 -10 28 0 43 9 80 46 41 42 45 52 45 94 0 42 -5 53 -36 84 -38 38
-44 42 -44 27z"/>
<path d="M13378 23043 c12 -2 32 -2 45 0 12 2 2 4 -23 4 -25 0 -35 -2 -22 -4z"/>
<path d="M7440 19480 l0 -40 40 0 40 0 0 40 0 40 -40 0 -40 0 0 -40z"/>
<path d="M17138 15203 c12 -2 32 -2 45 0 12 2 2 4 -23 4 -25 0 -35 -2 -22 -4z"/>
<path d="M19360 12360 l0 -40 -40 0 -40 0 0 -40 0 -40 40 0 40 0 0 40 0 40 40
0 40 0 0 -40 0 -40 40 0 40 0 0 40 c0 22 -4 40 -9 40 -5 0 -23 14 -40 31 -17
17 -31 35 -31 40 0 5 -18 9 -40 9 l-40 0 0 -40z"/>
<path d="M19520 12360 l0 -40 40 0 40 0 0 40 0 40 -40 0 -40 0 0 -40z"/>
<path d="M16400 12145 c0 -11 11 -15 40 -15 29 0 40 4 40 15 0 11 -11 15 -40
15 -29 0 -40 -4 -40 -15z"/>
<path d="M16960 11984 c0 -9 5 -14 12 -12 18 6 21 28 4 28 -9 0 -16 -7 -16
-16z"/>
<path d="M16800 11880 c0 -29 4 -40 15 -40 11 0 15 11 15 40 0 29 -4 40 -15
40 -11 0 -15 -11 -15 -40z"/>
<path d="M12720 13510 c0 -5 18 -10 40 -10 22 0 40 5 40 10 0 6 -18 10 -40 10
-22 0 -40 -4 -40 -10z"/>
<path d="M12596 13425 c4 -9 15 -20 25 -26 16 -8 19 -6 19 16 0 20 -5 25 -25
25 -18 0 -23 -4 -19 -15z"/>
<path d="M12720 13424 c0 -14 3 -14 15 -4 8 7 15 14 15 16 0 2 -7 4 -15 4 -8
0 -15 -7 -15 -16z"/>
<path d="M12720 13145 c0 -20 5 -25 25 -25 22 0 24 3 16 19 -17 31 -41 34 -41
6z"/>
<path d="M13650 11836 c0 -2 7 -9 15 -16 12 -10 15 -10 15 4 0 9 -7 16 -15 16
-8 0 -15 -2 -15 -4z"/>
<path d="M13600 11775 c0 -8 7 -15 16 -15 14 0 14 3 4 15 -7 8 -14 15 -16 15
-2 0 -4 -7 -4 -15z"/>
<path d="M20992 4763 c3 -38 3 -38 51 -41 l47 -3 0 40 0 41 -51 0 -50 0 3 -37z"/>
<path d="M24013 4713 c9 -2 23 -2 30 0 6 3 -1 5 -18 5 -16 0 -22 -2 -12 -5z"/>
<path d="M22560 3910 c0 -13 20 -13 40 0 12 8 9 10 -12 10 -16 0 -28 -4 -28
-10z"/>
<path d="M21280 3266 c0 -9 7 -12 20 -9 11 3 20 9 20 14 0 5 -9 9 -20 9 -11 0
-20 -6 -20 -14z"/>
<path d="M2953 34120 c0 -25 2 -35 4 -22 2 12 2 32 0 45 -2 12 -4 2 -4 -23z"/>
<path d="M0 22880 l0 -1120 40 0 40 0 0 40 0 40 120 0 120 0 0 80 0 80 -40 0
-40 0 0 120 0 120 40 0 40 0 0 40 0 40 -40 0 -40 0 0 240 0 240 40 0 40 0 0
40 0 40 40 0 40 0 0 40 0 40 40 0 40 0 0 40 0 40 80 0 80 0 0 80 0 80 -40 0
-40 0 0 40 0 40 40 0 40 0 0 160 0 160 40 0 40 0 0 40 0 40 -40 0 -40 0 0 40
0 40 -40 0 -40 0 0 40 0 40 -160 0 -160 0 0 40 0 40 -40 0 -40 0 0 40 0 40
-80 0 -80 0 0 -1120z"/>
<path d="M10480 18920 l0 -40 40 0 40 0 0 40 0 40 -40 0 -40 0 0 -40z"/>
<path d="M10560 18760 l0 -40 80 0 80 0 0 40 0 40 -80 0 -80 0 0 -40z"/>
<path d="M11458 16163 c12 -2 32 -2 45 0 12 2 2 4 -23 4 -25 0 -35 -2 -22 -4z"/>
<path d="M11543 16061 c-13 -11 -23 -30 -23 -45 0 -15 -8 -30 -20 -36 -16 -9
-20 -21 -20 -65 0 -60 12 -71 28 -27 6 15 11 21 11 15 1 -18 31 -16 31 2 0 8
-4 15 -10 15 -5 0 -10 18 -10 40 0 22 4 40 8 40 9 0 42 54 42 69 0 16 -12 13
-37 -8z"/>
<path d="M11792 15508 c6 -18 28 -21 28 -4 0 9 -7 16 -16 16 -9 0 -14 -5 -12
-12z"/>
<path d="M11760 15326 c0 -18 16 -29 30 -21 13 8 1 35 -16 35 -8 0 -14 -6 -14
-14z"/>
<path d="M11840 15141 c0 -12 5 -21 10 -21 6 0 10 6 10 14 0 8 -4 18 -10 21
-5 3 -10 -3 -10 -14z"/>
<path d="M11850 15095 c-10 -12 -10 -18 0 -30 15 -18 30 -11 30 15 0 26 -15
33 -30 15z"/>
<path d="M12283 13703 c20 -2 37 -8 37 -14 0 -5 18 -9 40 -9 22 0 40 5 40 10
0 6 -8 10 -19 10 -10 0 -45 2 -77 4 -32 2 -42 1 -21 -1z"/>
<path d="M0 13520 l0 -80 80 0 80 0 0 40 0 40 -40 0 -40 0 0 40 0 40 -40 0
-40 0 0 -80z"/>
<path d="M0 13000 l0 -40 40 0 40 0 0 40 0 40 -40 0 -40 0 0 -40z"/>
<path d="M3675 12950 c4 -6 11 -8 16 -5 5 4 9 1 9 -5 0 -6 4 -9 9 -6 11 7 33
-18 24 -27 -3 -4 -1 -7 6 -7 7 0 10 -4 6 -9 -3 -5 -1 -12 5 -16 6 -4 10 11 10
39 l0 46 -46 0 c-28 0 -43 -4 -39 -10z"/>
<path d="M3798 12873 c30 -4 32 -7 32 -41 0 -37 25 -87 39 -78 4 3 12 -4 19
-15 12 -18 9 -19 -58 -19 l-70 0 0 -80 0 -80 -160 0 -160 0 0 -40 0 -40 -40 0
-40 0 0 -198 0 -197 478 0 477 0 3 38 c3 36 4 37 43 37 l40 0 -3 118 -3 117
-35 0 c-33 0 -35 2 -38 39 -4 44 6 55 49 51 27 -2 29 0 29 36 0 39 0 39 -40
39 -27 0 -40 4 -40 13 0 10 -12 13 -40 12 -29 -1 -40 2 -40 13 0 10 -10 13
-40 10 -33 -3 -40 0 -40 14 0 14 -8 18 -40 18 -36 0 -40 3 -40 25 0 23 -4 25
-40 25 -29 0 -40 4 -40 15 0 11 -10 15 -37 13 -37 -1 -37 -1 -5 -5 29 -4 32
-7 32 -39 0 -32 -2 -34 -35 -34 l-35 0 0 80 0 80 -40 0 -40 0 0 40 c0 40 0 40
-37 38 -37 -1 -37 -1 -5 -5z"/>
<path d="M13410 11800 c0 -29 4 -40 15 -40 11 0 15 11 15 40 0 29 -4 40 -15
40 -11 0 -15 -11 -15 -40z"/>
<path d="M13734 11375 c-4 -8 -17 -15 -30 -15 -19 0 -24 -5 -24 -25 0 -14 4
-25 9 -25 5 0 18 11 29 25 11 14 25 25 31 25 6 0 11 7 11 15 0 8 -5 15 -10 15
-6 0 -13 -7 -16 -15z"/>
<path d="M13840 11370 c0 -5 18 -10 40 -10 22 0 40 5 40 10 0 6 -18 10 -40 10
-22 0 -40 -4 -40 -10z"/>
<path d="M940 11160 c0 -22 5 -40 10 -40 6 0 10 -47 10 -120 l0 -120 -120 0
-120 0 0 -40 0 -40 -40 0 c-33 0 -40 3 -40 20 0 26 -15 25 -34 -1 -10 -14 -22
-20 -35 -16 -14 3 -18 1 -14 -9 4 -11 -5 -14 -36 -14 -28 0 -41 -4 -41 -13 0
-27 -38 -50 -72 -44 -18 3 -27 3 -20 0 25 -10 10 -23 -28 -23 -22 0 -40 -4
-40 -10 0 -5 -18 -10 -40 -10 -24 0 -40 -5 -40 -12 0 -8 -32 -9 -120 -5 l-120
7 0 -975 0 -975 40 0 40 0 0 40 0 40 40 0 40 0 0 40 0 40 40 0 40 0 0 120 0
120 40 0 40 0 0 120 0 120 40 0 40 0 0 40 0 40 40 0 40 0 0 80 0 80 40 0 40 0
0 80 0 80 40 0 40 0 0 80 0 80 40 0 40 0 0 80 0 80 40 0 40 0 0 80 0 80 39 0
c40 0 40 0 43 43 l3 42 75 0 75 0 3 78 3 77 39 0 40 0 0 160 0 160 -40 0 -40
0 0 40 0 40 40 0 40 0 0 40 0 40 -40 0 -40 0 0 40 0 40 40 0 40 0 0 40 0 40
-80 0 -80 0 0 40 c0 22 -4 40 -10 40 -5 0 -10 -18 -10 -40z"/>
</g>
</svg>
